%TF.GenerationSoftware,KiCad,Pcbnew,7.0.2*%
%TF.CreationDate,2024-01-21T19:49:34+02:00*%
%TF.ProjectId,illuminati_ws,696c6c75-6d69-46e6-9174-695f77732e6b,rev?*%
%TF.SameCoordinates,Original*%
%TF.FileFunction,Soldermask,Top*%
%TF.FilePolarity,Negative*%
%FSLAX46Y46*%
G04 Gerber Fmt 4.6, Leading zero omitted, Abs format (unit mm)*
G04 Created by KiCad (PCBNEW 7.0.2) date 2024-01-21 19:49:34*
%MOMM*%
%LPD*%
G01*
G04 APERTURE LIST*
G04 Aperture macros list*
%AMRoundRect*
0 Rectangle with rounded corners*
0 $1 Rounding radius*
0 $2 $3 $4 $5 $6 $7 $8 $9 X,Y pos of 4 corners*
0 Add a 4 corners polygon primitive as box body*
4,1,4,$2,$3,$4,$5,$6,$7,$8,$9,$2,$3,0*
0 Add four circle primitives for the rounded corners*
1,1,$1+$1,$2,$3*
1,1,$1+$1,$4,$5*
1,1,$1+$1,$6,$7*
1,1,$1+$1,$8,$9*
0 Add four rect primitives between the rounded corners*
20,1,$1+$1,$2,$3,$4,$5,0*
20,1,$1+$1,$4,$5,$6,$7,0*
20,1,$1+$1,$6,$7,$8,$9,0*
20,1,$1+$1,$8,$9,$2,$3,0*%
%AMFreePoly0*
4,1,6,1.000000,0.000000,0.500000,-0.750000,-0.500000,-0.750000,-0.500000,0.750000,0.500000,0.750000,1.000000,0.000000,1.000000,0.000000,$1*%
%AMFreePoly1*
4,1,6,0.500000,-0.750000,-0.650000,-0.750000,-0.150000,0.000000,-0.650000,0.750000,0.500000,0.750000,0.500000,-0.750000,0.500000,-0.750000,$1*%
G04 Aperture macros list end*
%ADD10RoundRect,0.250000X0.250000X0.475000X-0.250000X0.475000X-0.250000X-0.475000X0.250000X-0.475000X0*%
%ADD11RoundRect,0.250000X-0.475000X0.250000X-0.475000X-0.250000X0.475000X-0.250000X0.475000X0.250000X0*%
%ADD12RoundRect,0.200000X0.275000X-0.200000X0.275000X0.200000X-0.275000X0.200000X-0.275000X-0.200000X0*%
%ADD13RoundRect,0.250000X-0.250000X-0.475000X0.250000X-0.475000X0.250000X0.475000X-0.250000X0.475000X0*%
%ADD14R,2.600000X2.600000*%
%ADD15C,2.600000*%
%ADD16FreePoly0,90.000000*%
%ADD17FreePoly1,90.000000*%
%ADD18RoundRect,0.200000X-0.275000X0.200000X-0.275000X-0.200000X0.275000X-0.200000X0.275000X0.200000X0*%
%ADD19RoundRect,0.200000X-0.200000X-0.275000X0.200000X-0.275000X0.200000X0.275000X-0.200000X0.275000X0*%
%ADD20RoundRect,0.150000X-0.825000X-0.150000X0.825000X-0.150000X0.825000X0.150000X-0.825000X0.150000X0*%
%ADD21RoundRect,0.150000X-0.150000X0.825000X-0.150000X-0.825000X0.150000X-0.825000X0.150000X0.825000X0*%
%ADD22C,5.600000*%
%ADD23R,1.700000X1.700000*%
%ADD24O,1.700000X1.700000*%
%ADD25RoundRect,0.225000X0.250000X-0.225000X0.250000X0.225000X-0.250000X0.225000X-0.250000X-0.225000X0*%
%ADD26RoundRect,0.250000X-0.325000X-0.650000X0.325000X-0.650000X0.325000X0.650000X-0.325000X0.650000X0*%
%ADD27C,2.000000*%
%ADD28RoundRect,0.200000X0.200000X0.275000X-0.200000X0.275000X-0.200000X-0.275000X0.200000X-0.275000X0*%
%ADD29RoundRect,0.250000X-0.650000X1.000000X-0.650000X-1.000000X0.650000X-1.000000X0.650000X1.000000X0*%
%ADD30R,1.500000X0.900000*%
%ADD31R,0.700000X0.700000*%
%ADD32R,1.500000X2.000000*%
%ADD33R,3.800000X2.000000*%
%ADD34R,1.150000X0.600000*%
%ADD35R,1.500000X2.500000*%
%ADD36RoundRect,0.150000X0.825000X0.150000X-0.825000X0.150000X-0.825000X-0.150000X0.825000X-0.150000X0*%
G04 APERTURE END LIST*
D10*
%TO.C,C11*%
X145200000Y-128100000D03*
X143300000Y-128100000D03*
%TD*%
D11*
%TO.C,C10*%
X150600000Y-127900000D03*
X150600000Y-126000000D03*
%TD*%
%TO.C,C8*%
X139000000Y-129300000D03*
X139000000Y-131200000D03*
%TD*%
%TO.C,C6*%
X153150000Y-126100000D03*
X153150000Y-128000000D03*
%TD*%
D12*
%TO.C,R17*%
X142800000Y-108625000D03*
X142800000Y-106975000D03*
%TD*%
D13*
%TO.C,C1*%
X171300000Y-93500000D03*
X173200000Y-93500000D03*
%TD*%
D14*
%TO.C,J5*%
X180000000Y-131000000D03*
D15*
X180000000Y-126000000D03*
X180000000Y-121000000D03*
%TD*%
D16*
%TO.C,JP1*%
X147800000Y-129525000D03*
D17*
X147800000Y-128075000D03*
%TD*%
D14*
%TO.C,J9*%
X119500000Y-121000000D03*
D15*
X119500000Y-126000000D03*
X119500000Y-131000000D03*
%TD*%
D14*
%TO.C,J10*%
X119500000Y-104500000D03*
D15*
X119500000Y-109500000D03*
X119500000Y-114500000D03*
%TD*%
D18*
%TO.C,R5*%
X163150000Y-128975000D03*
X163150000Y-130625000D03*
%TD*%
D19*
%TO.C,R7*%
X171275000Y-98300000D03*
X172925000Y-98300000D03*
%TD*%
D20*
%TO.C,U2*%
X164025000Y-93190000D03*
X164025000Y-94460000D03*
X164025000Y-95730000D03*
X164025000Y-97000000D03*
X164025000Y-98270000D03*
X164025000Y-99540000D03*
X164025000Y-100810000D03*
X168975000Y-100810000D03*
X168975000Y-99540000D03*
X168975000Y-98270000D03*
X168975000Y-97000000D03*
X168975000Y-95730000D03*
X168975000Y-94460000D03*
X168975000Y-93190000D03*
%TD*%
D21*
%TO.C,U3*%
X139310000Y-126975000D03*
X138040000Y-126975000D03*
X136770000Y-126975000D03*
X135500000Y-126975000D03*
X134230000Y-126975000D03*
X132960000Y-126975000D03*
X131690000Y-126975000D03*
X131690000Y-122025000D03*
X132960000Y-122025000D03*
X134230000Y-122025000D03*
X135500000Y-122025000D03*
X136770000Y-122025000D03*
X138040000Y-122025000D03*
X139310000Y-122025000D03*
%TD*%
D12*
%TO.C,R3*%
X164780000Y-130625000D03*
X164780000Y-128975000D03*
%TD*%
D14*
%TO.C,J2*%
X150500000Y-140000000D03*
D15*
X155500000Y-140000000D03*
X160500000Y-140000000D03*
%TD*%
D22*
%TO.C,H2*%
X133000000Y-115000000D03*
%TD*%
D14*
%TO.C,J4*%
X180000000Y-114500000D03*
D15*
X180000000Y-109500000D03*
X180000000Y-104500000D03*
%TD*%
D18*
%TO.C,R18*%
X137750000Y-94175000D03*
X137750000Y-95825000D03*
%TD*%
D23*
%TO.C,J1*%
X159550000Y-110500000D03*
D24*
X159550000Y-113040000D03*
X157010000Y-110500000D03*
X157010000Y-113040000D03*
X154470000Y-110500000D03*
X154470000Y-113040000D03*
%TD*%
D18*
%TO.C,R10*%
X134200000Y-129350000D03*
X134200000Y-131000000D03*
%TD*%
D25*
%TO.C,C4*%
X163150000Y-123575000D03*
X163150000Y-122025000D03*
%TD*%
D26*
%TO.C,C2*%
X168425000Y-125300000D03*
X171375000Y-125300000D03*
%TD*%
D14*
%TO.C,J11*%
X119500000Y-88000000D03*
D15*
X119500000Y-93000000D03*
X119500000Y-98000000D03*
%TD*%
D27*
%TO.C,SW1*%
X127100000Y-95600000D03*
X127100000Y-89100000D03*
X131600000Y-95600000D03*
X131600000Y-89100000D03*
%TD*%
D10*
%TO.C,C13*%
X128950000Y-105250000D03*
X127050000Y-105250000D03*
%TD*%
D12*
%TO.C,R13*%
X144400000Y-108625000D03*
X144400000Y-106975000D03*
%TD*%
D26*
%TO.C,C3*%
X168425000Y-127730000D03*
X171375000Y-127730000D03*
%TD*%
D11*
%TO.C,C5*%
X155400000Y-126100000D03*
X155400000Y-128000000D03*
%TD*%
D12*
%TO.C,R14*%
X146400000Y-108625000D03*
X146400000Y-106975000D03*
%TD*%
D18*
%TO.C,R2*%
X166400000Y-128975000D03*
X166400000Y-130625000D03*
%TD*%
D12*
%TO.C,R4*%
X159900000Y-130625000D03*
X159900000Y-128975000D03*
%TD*%
D19*
%TO.C,R8*%
X171275000Y-100800000D03*
X172925000Y-100800000D03*
%TD*%
D18*
%TO.C,R9*%
X136700000Y-129350000D03*
X136700000Y-131000000D03*
%TD*%
D14*
%TO.C,J8*%
X117500000Y-140000000D03*
D15*
X122500000Y-140000000D03*
X127500000Y-140000000D03*
%TD*%
D25*
%TO.C,C9*%
X135775000Y-95775000D03*
X135775000Y-94225000D03*
%TD*%
D28*
%TO.C,R16*%
X128780000Y-98100000D03*
X127130000Y-98100000D03*
%TD*%
D29*
%TO.C,D1*%
X160150000Y-122550000D03*
X160150000Y-126550000D03*
%TD*%
D22*
%TO.C,H1*%
X166500000Y-115000000D03*
%TD*%
D28*
%TO.C,R15*%
X128780000Y-100505000D03*
X127130000Y-100505000D03*
%TD*%
D14*
%TO.C,J7*%
X134000000Y-140000000D03*
D15*
X139000000Y-140000000D03*
X144000000Y-140000000D03*
%TD*%
D18*
%TO.C,R11*%
X131700000Y-129350000D03*
X131700000Y-131000000D03*
%TD*%
D30*
%TO.C,IC1*%
X141350000Y-92100000D03*
X141350000Y-93600000D03*
X141350000Y-95100000D03*
X141350000Y-96600000D03*
X141350000Y-98100000D03*
X141350000Y-99600000D03*
X141350000Y-101100000D03*
X141350000Y-102600000D03*
X141350000Y-104100000D03*
X158850000Y-104100000D03*
X158850000Y-102600000D03*
X158850000Y-101100000D03*
X158850000Y-99600000D03*
X158850000Y-98100000D03*
X158850000Y-96600000D03*
X158850000Y-95100000D03*
X158850000Y-93600000D03*
X158850000Y-92100000D03*
D31*
X151060000Y-98300000D03*
X152160000Y-98300000D03*
X152160000Y-97200000D03*
X151060000Y-97200000D03*
X149960000Y-97200000D03*
X149960000Y-98300000D03*
X149960000Y-99400000D03*
X151060000Y-99400000D03*
X152160000Y-99400000D03*
%TD*%
D14*
%TO.C,J3*%
X180000000Y-98000000D03*
D15*
X180000000Y-93000000D03*
X180000000Y-88000000D03*
%TD*%
D32*
%TO.C,U6*%
X143200000Y-125500000D03*
X145500000Y-125500000D03*
D33*
X145500000Y-119200000D03*
D32*
X147800000Y-125500000D03*
%TD*%
D28*
%TO.C,R12*%
X128780000Y-103005000D03*
X127130000Y-103005000D03*
%TD*%
D14*
%TO.C,J14*%
X167000000Y-140000000D03*
D15*
X172000000Y-140000000D03*
X177000000Y-140000000D03*
X182000000Y-140000000D03*
%TD*%
D10*
%TO.C,C12*%
X137700000Y-92250000D03*
X135800000Y-92250000D03*
%TD*%
D34*
%TO.C,PS1*%
X163100000Y-125350000D03*
X163100000Y-126300000D03*
X163100000Y-127250000D03*
X165700000Y-127250000D03*
X165700000Y-126300000D03*
X165700000Y-125350000D03*
%TD*%
D35*
%TO.C,L1*%
X157000000Y-122550000D03*
X153300000Y-122550000D03*
%TD*%
D25*
%TO.C,C7*%
X161530000Y-130575000D03*
X161530000Y-129025000D03*
%TD*%
D36*
%TO.C,U4*%
X131225000Y-105610000D03*
X131225000Y-104340000D03*
X131225000Y-103070000D03*
X131225000Y-101800000D03*
X131225000Y-100530000D03*
X131225000Y-99260000D03*
X131225000Y-97990000D03*
X136175000Y-97990000D03*
X136175000Y-99260000D03*
X136175000Y-100530000D03*
X136175000Y-101800000D03*
X136175000Y-103070000D03*
X136175000Y-104340000D03*
X136175000Y-105610000D03*
%TD*%
D19*
%TO.C,R6*%
X171275000Y-95800000D03*
X172925000Y-95800000D03*
%TD*%
M02*
