%TF.GenerationSoftware,KiCad,Pcbnew,7.0.2*%
%TF.CreationDate,2024-01-21T19:49:34+02:00*%
%TF.ProjectId,illuminati_ws,696c6c75-6d69-46e6-9174-695f77732e6b,rev?*%
%TF.SameCoordinates,Original*%
%TF.FileFunction,Copper,L2,Bot*%
%TF.FilePolarity,Positive*%
%FSLAX46Y46*%
G04 Gerber Fmt 4.6, Leading zero omitted, Abs format (unit mm)*
G04 Created by KiCad (PCBNEW 7.0.2) date 2024-01-21 19:49:34*
%MOMM*%
%LPD*%
G01*
G04 APERTURE LIST*
%TA.AperFunction,ComponentPad*%
%ADD10R,2.600000X2.600000*%
%TD*%
%TA.AperFunction,ComponentPad*%
%ADD11C,2.600000*%
%TD*%
%TA.AperFunction,ComponentPad*%
%ADD12C,5.600000*%
%TD*%
%TA.AperFunction,ComponentPad*%
%ADD13R,1.700000X1.700000*%
%TD*%
%TA.AperFunction,ComponentPad*%
%ADD14O,1.700000X1.700000*%
%TD*%
%TA.AperFunction,ComponentPad*%
%ADD15C,2.000000*%
%TD*%
%TA.AperFunction,ViaPad*%
%ADD16C,0.800000*%
%TD*%
%TA.AperFunction,Conductor*%
%ADD17C,0.300000*%
%TD*%
G04 APERTURE END LIST*
D10*
%TO.P,J5,1,Pin_1*%
%TO.N,GND*%
X180000000Y-131000000D03*
D11*
%TO.P,J5,2,Pin_2*%
%TO.N,Net-(J5-Pin_2)*%
X180000000Y-126000000D03*
%TO.P,J5,3,Pin_3*%
%TO.N,VCC*%
X180000000Y-121000000D03*
%TD*%
D10*
%TO.P,J9,1,Pin_1*%
%TO.N,GND*%
X119500000Y-121000000D03*
D11*
%TO.P,J9,2,Pin_2*%
%TO.N,Net-(J9-Pin_2)*%
X119500000Y-126000000D03*
%TO.P,J9,3,Pin_3*%
%TO.N,VCC*%
X119500000Y-131000000D03*
%TD*%
D10*
%TO.P,J10,1,Pin_1*%
%TO.N,GND*%
X119500000Y-104500000D03*
D11*
%TO.P,J10,2,Pin_2*%
%TO.N,Net-(J10-Pin_2)*%
X119500000Y-109500000D03*
%TO.P,J10,3,Pin_3*%
%TO.N,VCC*%
X119500000Y-114500000D03*
%TD*%
D10*
%TO.P,J2,1,Pin_1*%
%TO.N,GND*%
X150500000Y-140000000D03*
D11*
%TO.P,J2,2,Pin_2*%
%TO.N,Net-(J2-Pin_2)*%
X155500000Y-140000000D03*
%TO.P,J2,3,Pin_3*%
%TO.N,VCC*%
X160500000Y-140000000D03*
%TD*%
D12*
%TO.P,H2,1,1*%
%TO.N,GND*%
X133000000Y-115000000D03*
%TD*%
D10*
%TO.P,J4,1,Pin_1*%
%TO.N,GND*%
X180000000Y-114500000D03*
D11*
%TO.P,J4,2,Pin_2*%
%TO.N,Net-(J4-Pin_2)*%
X180000000Y-109500000D03*
%TO.P,J4,3,Pin_3*%
%TO.N,VCC*%
X180000000Y-104500000D03*
%TD*%
D13*
%TO.P,J1,1,Pin_1*%
%TO.N,+3V3*%
X159550000Y-110500000D03*
D14*
%TO.P,J1,2,Pin_2*%
%TO.N,/rx*%
X159550000Y-113040000D03*
%TO.P,J1,3,Pin_3*%
%TO.N,/tx*%
X157010000Y-110500000D03*
%TO.P,J1,4,Pin_4*%
%TO.N,/boot*%
X157010000Y-113040000D03*
%TO.P,J1,5,Pin_5*%
%TO.N,GND*%
X154470000Y-110500000D03*
%TO.P,J1,6,Pin_6*%
%TO.N,/esp_en*%
X154470000Y-113040000D03*
%TD*%
D10*
%TO.P,J11,1,Pin_1*%
%TO.N,GND*%
X119500000Y-88000000D03*
D11*
%TO.P,J11,2,Pin_2*%
%TO.N,Net-(J11-Pin_2)*%
X119500000Y-93000000D03*
%TO.P,J11,3,Pin_3*%
%TO.N,VCC*%
X119500000Y-98000000D03*
%TD*%
D15*
%TO.P,SW1,1,A*%
%TO.N,/sw*%
X127100000Y-95600000D03*
X127100000Y-89100000D03*
%TO.P,SW1,2,B*%
%TO.N,GND*%
X131600000Y-95600000D03*
X131600000Y-89100000D03*
%TD*%
D10*
%TO.P,J8,1,Pin_1*%
%TO.N,GND*%
X117500000Y-140000000D03*
D11*
%TO.P,J8,2,Pin_2*%
%TO.N,Net-(J8-Pin_2)*%
X122500000Y-140000000D03*
%TO.P,J8,3,Pin_3*%
%TO.N,VCC*%
X127500000Y-140000000D03*
%TD*%
D12*
%TO.P,H1,1,1*%
%TO.N,GND*%
X166500000Y-115000000D03*
%TD*%
D10*
%TO.P,J7,1,Pin_1*%
%TO.N,GND*%
X134000000Y-140000000D03*
D11*
%TO.P,J7,2,Pin_2*%
%TO.N,Net-(J7-Pin_2)*%
X139000000Y-140000000D03*
%TO.P,J7,3,Pin_3*%
%TO.N,VCC*%
X144000000Y-140000000D03*
%TD*%
D10*
%TO.P,J3,1,Pin_1*%
%TO.N,GND*%
X180000000Y-98000000D03*
D11*
%TO.P,J3,2,Pin_2*%
%TO.N,Net-(J3-Pin_2)*%
X180000000Y-93000000D03*
%TO.P,J3,3,Pin_3*%
%TO.N,VCC*%
X180000000Y-88000000D03*
%TD*%
D10*
%TO.P,J14,1,Pin_1*%
%TO.N,VCC*%
X167000000Y-140000000D03*
D11*
%TO.P,J14,2,Pin_2*%
X172000000Y-140000000D03*
%TO.P,J14,3,Pin_3*%
%TO.N,GND*%
X177000000Y-140000000D03*
%TO.P,J14,4,Pin_4*%
X182000000Y-140000000D03*
%TD*%
D16*
%TO.N,/esp_en*%
X139400000Y-94400000D03*
%TO.N,GND*%
X152150000Y-98300000D03*
X149950000Y-97200000D03*
X152200000Y-99400000D03*
X151050000Y-97200000D03*
X149950000Y-98300000D03*
X149950000Y-99400000D03*
X151050000Y-98300000D03*
X151050000Y-99400000D03*
X152150000Y-97200000D03*
%TO.N,VCC*%
X147800000Y-132600000D03*
%TO.N,+3V3*%
X137700000Y-93400000D03*
X152090000Y-114500000D03*
X145400000Y-108600000D03*
%TO.N,/boot*%
X142800000Y-105800000D03*
%TO.N,+5V*%
X131300000Y-107100000D03*
X148675000Y-115225000D03*
X162950000Y-102450000D03*
X158800000Y-130550000D03*
X166900000Y-93250000D03*
X151950000Y-126100000D03*
%TD*%
D17*
%TO.N,+3V3*%
X158300000Y-111750000D02*
X159550000Y-110500000D01*
X158300000Y-113950000D02*
X158300000Y-111750000D01*
X157750000Y-114500000D02*
X158300000Y-113950000D01*
X152090000Y-114500000D02*
X157750000Y-114500000D01*
X152090000Y-114500000D02*
X151300000Y-114500000D01*
X151300000Y-114500000D02*
X145400000Y-108600000D01*
%TO.N,/esp_en*%
X151420000Y-113040000D02*
X145180000Y-106800000D01*
X154470000Y-113040000D02*
X151420000Y-113040000D01*
X139400000Y-104400000D02*
X139400000Y-94400000D01*
X145180000Y-106800000D02*
X141800000Y-106800000D01*
X141800000Y-106800000D02*
X139400000Y-104400000D01*
%TO.N,+3V3*%
X144600000Y-107800000D02*
X141200000Y-107800000D01*
X141200000Y-107800000D02*
X138200000Y-104800000D01*
X145400000Y-108600000D02*
X144600000Y-107800000D01*
X138200000Y-104800000D02*
X138200000Y-93900000D01*
X138200000Y-93900000D02*
X137700000Y-93400000D01*
%TO.N,/boot*%
X145100000Y-105800000D02*
X150950000Y-111650000D01*
X142800000Y-105800000D02*
X145100000Y-105800000D01*
X155620000Y-111650000D02*
X157010000Y-113040000D01*
X150950000Y-111650000D02*
X155620000Y-111650000D01*
%TO.N,+5V*%
X151950000Y-129100000D02*
X151950000Y-126100000D01*
X148050000Y-112750000D02*
X144100000Y-108800000D01*
X162950000Y-102450000D02*
X162950000Y-97200000D01*
X158800000Y-130550000D02*
X153400000Y-130550000D01*
X148675000Y-115225000D02*
X148675000Y-114975000D01*
X144100000Y-108800000D02*
X133000000Y-108800000D01*
X133000000Y-108800000D02*
X131300000Y-107100000D01*
X153400000Y-130550000D02*
X151950000Y-129100000D01*
X148050000Y-114350000D02*
X148050000Y-112750000D01*
X148675000Y-114975000D02*
X148050000Y-114350000D01*
X162950000Y-97200000D02*
X166900000Y-93250000D01*
%TD*%
%TA.AperFunction,Conductor*%
%TO.N,GND*%
G36*
X118754191Y-138723907D02*
G01*
X118790155Y-138773407D01*
X118795000Y-138804000D01*
X118795000Y-141196000D01*
X118776093Y-141254191D01*
X118726593Y-141290155D01*
X118696000Y-141295000D01*
X116304000Y-141295000D01*
X116245809Y-141276093D01*
X116209845Y-141226593D01*
X116205000Y-141196000D01*
X116205000Y-138804000D01*
X116223907Y-138745809D01*
X116273407Y-138709845D01*
X116304000Y-138705000D01*
X118696000Y-138705000D01*
X118754191Y-138723907D01*
G37*
%TD.AperFunction*%
%TA.AperFunction,Conductor*%
G36*
X135254191Y-138723907D02*
G01*
X135290155Y-138773407D01*
X135295000Y-138804000D01*
X135295000Y-141196000D01*
X135276093Y-141254191D01*
X135226593Y-141290155D01*
X135196000Y-141295000D01*
X132804000Y-141295000D01*
X132745809Y-141276093D01*
X132709845Y-141226593D01*
X132705000Y-141196000D01*
X132705000Y-138804000D01*
X132723907Y-138745809D01*
X132773407Y-138709845D01*
X132804000Y-138705000D01*
X135196000Y-138705000D01*
X135254191Y-138723907D01*
G37*
%TD.AperFunction*%
%TA.AperFunction,Conductor*%
G36*
X151754191Y-138723907D02*
G01*
X151790155Y-138773407D01*
X151795000Y-138804000D01*
X151795000Y-141196000D01*
X151776093Y-141254191D01*
X151726593Y-141290155D01*
X151696000Y-141295000D01*
X149304000Y-141295000D01*
X149245809Y-141276093D01*
X149209845Y-141226593D01*
X149205000Y-141196000D01*
X149205000Y-138804000D01*
X149223907Y-138745809D01*
X149273407Y-138709845D01*
X149304000Y-138705000D01*
X151696000Y-138705000D01*
X151754191Y-138723907D01*
G37*
%TD.AperFunction*%
%TA.AperFunction,Conductor*%
G36*
X177115399Y-138706350D02*
G01*
X177310903Y-138738973D01*
X177326753Y-138742986D01*
X177514220Y-138807344D01*
X177529180Y-138813906D01*
X177703512Y-138908249D01*
X177717198Y-138917190D01*
X177873611Y-139038932D01*
X177885641Y-139050006D01*
X178019882Y-139195831D01*
X178029924Y-139208734D01*
X178138334Y-139374667D01*
X178146117Y-139389047D01*
X178225734Y-139570556D01*
X178231043Y-139586021D01*
X178279702Y-139778171D01*
X178282393Y-139794299D01*
X178298760Y-139991824D01*
X178298760Y-140008174D01*
X178282393Y-140205699D01*
X178279702Y-140221827D01*
X178231043Y-140413977D01*
X178225734Y-140429442D01*
X178146117Y-140610951D01*
X178138334Y-140625331D01*
X178029924Y-140791264D01*
X178019882Y-140804167D01*
X177885641Y-140949992D01*
X177873611Y-140961066D01*
X177717200Y-141082806D01*
X177703512Y-141091749D01*
X177529189Y-141186088D01*
X177514215Y-141192656D01*
X177326753Y-141257011D01*
X177310903Y-141261025D01*
X177115399Y-141293650D01*
X177099104Y-141295000D01*
X176900896Y-141295000D01*
X176884601Y-141293650D01*
X176689094Y-141261025D01*
X176673244Y-141257011D01*
X176485783Y-141192656D01*
X176470809Y-141186088D01*
X176296486Y-141091749D01*
X176282798Y-141082806D01*
X176217837Y-141032245D01*
X176126386Y-140961065D01*
X176114363Y-140949997D01*
X175980112Y-140804163D01*
X175970076Y-140791268D01*
X175861660Y-140625325D01*
X175853884Y-140610958D01*
X175774261Y-140429435D01*
X175768957Y-140413985D01*
X175720295Y-140221822D01*
X175717605Y-140205701D01*
X175701237Y-140008174D01*
X175701237Y-139991823D01*
X175717605Y-139794289D01*
X175720291Y-139778190D01*
X175768961Y-139586002D01*
X175774258Y-139570572D01*
X175853887Y-139389033D01*
X175861663Y-139374667D01*
X175970074Y-139208732D01*
X175980108Y-139195839D01*
X176114362Y-139050001D01*
X176126386Y-139038932D01*
X176282803Y-138917187D01*
X176296475Y-138908255D01*
X176470826Y-138813901D01*
X176485771Y-138807346D01*
X176673255Y-138742983D01*
X176689084Y-138738974D01*
X176884599Y-138706350D01*
X176900894Y-138705000D01*
X177099105Y-138705000D01*
X177115399Y-138706350D01*
G37*
%TD.AperFunction*%
%TA.AperFunction,Conductor*%
G36*
X182115399Y-138706350D02*
G01*
X182310903Y-138738973D01*
X182326753Y-138742986D01*
X182514220Y-138807344D01*
X182529180Y-138813906D01*
X182703512Y-138908249D01*
X182717198Y-138917190D01*
X182873611Y-139038932D01*
X182885641Y-139050006D01*
X183019882Y-139195831D01*
X183029924Y-139208734D01*
X183138334Y-139374667D01*
X183146117Y-139389047D01*
X183225734Y-139570556D01*
X183231043Y-139586021D01*
X183279702Y-139778171D01*
X183282393Y-139794299D01*
X183298760Y-139991824D01*
X183298760Y-140008174D01*
X183282393Y-140205699D01*
X183279702Y-140221827D01*
X183231043Y-140413977D01*
X183225734Y-140429442D01*
X183146117Y-140610951D01*
X183138334Y-140625331D01*
X183029924Y-140791264D01*
X183019882Y-140804167D01*
X182885641Y-140949992D01*
X182873611Y-140961066D01*
X182717200Y-141082806D01*
X182703512Y-141091749D01*
X182529189Y-141186088D01*
X182514215Y-141192656D01*
X182326753Y-141257011D01*
X182310903Y-141261025D01*
X182115399Y-141293650D01*
X182099104Y-141295000D01*
X181900896Y-141295000D01*
X181884601Y-141293650D01*
X181689094Y-141261025D01*
X181673244Y-141257011D01*
X181485783Y-141192656D01*
X181470809Y-141186088D01*
X181296486Y-141091749D01*
X181282798Y-141082806D01*
X181217837Y-141032245D01*
X181126386Y-140961065D01*
X181114363Y-140949997D01*
X180980112Y-140804163D01*
X180970076Y-140791268D01*
X180861660Y-140625325D01*
X180853884Y-140610958D01*
X180774261Y-140429435D01*
X180768957Y-140413985D01*
X180720295Y-140221822D01*
X180717605Y-140205701D01*
X180701237Y-140008174D01*
X180701237Y-139991823D01*
X180717605Y-139794289D01*
X180720291Y-139778190D01*
X180768961Y-139586002D01*
X180774258Y-139570572D01*
X180853887Y-139389033D01*
X180861663Y-139374667D01*
X180970074Y-139208732D01*
X180980108Y-139195839D01*
X181114362Y-139050001D01*
X181126386Y-139038932D01*
X181282803Y-138917187D01*
X181296475Y-138908255D01*
X181470826Y-138813901D01*
X181485771Y-138807346D01*
X181673255Y-138742983D01*
X181689084Y-138738974D01*
X181884599Y-138706350D01*
X181900894Y-138705000D01*
X182099105Y-138705000D01*
X182115399Y-138706350D01*
G37*
%TD.AperFunction*%
%TA.AperFunction,Conductor*%
G36*
X129266975Y-84019407D02*
G01*
X129278788Y-84029496D01*
X135985702Y-90736409D01*
X135985958Y-90736791D01*
X135999617Y-90750383D01*
X135999717Y-90750424D01*
X135999999Y-90750542D01*
X136019608Y-90750550D01*
X136019864Y-90750500D01*
X163480135Y-90750500D01*
X163480330Y-90750539D01*
X163499999Y-90750541D01*
X163500000Y-90750542D01*
X163500000Y-90750541D01*
X163500003Y-90750542D01*
X163502178Y-90749662D01*
X163507084Y-90743682D01*
X163514547Y-90736219D01*
X163514662Y-90736044D01*
X170221211Y-84029495D01*
X170275728Y-84001719D01*
X170291215Y-84000500D01*
X171698077Y-84000500D01*
X171756268Y-84019407D01*
X171792232Y-84068907D01*
X171796068Y-84113589D01*
X171794878Y-84121871D01*
X171794500Y-84124500D01*
X171794500Y-130373871D01*
X171775593Y-130432062D01*
X171765504Y-130443875D01*
X170443876Y-131765504D01*
X170389359Y-131793281D01*
X170373872Y-131794500D01*
X129126128Y-131794500D01*
X129067937Y-131775593D01*
X129056124Y-131765504D01*
X127734495Y-130443875D01*
X127706718Y-130389358D01*
X127705500Y-130373883D01*
X127705500Y-126100000D01*
X151344318Y-126100000D01*
X151364955Y-126256761D01*
X151425464Y-126402841D01*
X151521716Y-126528281D01*
X151542499Y-126544228D01*
X151560766Y-126558244D01*
X151595423Y-126608668D01*
X151599500Y-126636787D01*
X151599500Y-129053381D01*
X151597393Y-129073696D01*
X151594957Y-129085313D01*
X151598740Y-129115661D01*
X151599500Y-129127907D01*
X151599500Y-129129041D01*
X151602751Y-129148528D01*
X151603340Y-129152572D01*
X151610101Y-129206804D01*
X151611312Y-129210585D01*
X151637322Y-129258646D01*
X151639195Y-129262285D01*
X151663198Y-129311385D01*
X151665568Y-129314564D01*
X151705764Y-129351567D01*
X151708717Y-129354399D01*
X153119198Y-130764880D01*
X153132070Y-130780732D01*
X153138563Y-130790669D01*
X153157800Y-130805641D01*
X153162689Y-130809447D01*
X153171880Y-130817563D01*
X153172691Y-130818374D01*
X153188767Y-130829852D01*
X153192048Y-130832298D01*
X153235186Y-130865873D01*
X153238697Y-130867680D01*
X153243932Y-130869238D01*
X153243934Y-130869240D01*
X153291067Y-130883272D01*
X153294963Y-130884520D01*
X153315775Y-130891664D01*
X153341512Y-130900500D01*
X153341514Y-130900500D01*
X153346673Y-130902271D01*
X153350592Y-130902842D01*
X153356044Y-130902616D01*
X153356046Y-130902617D01*
X153405186Y-130900584D01*
X153409277Y-130900500D01*
X158263212Y-130900500D01*
X158321403Y-130919407D01*
X158341754Y-130939233D01*
X158371717Y-130978282D01*
X158467970Y-131052139D01*
X158497159Y-131074536D01*
X158643238Y-131135044D01*
X158800000Y-131155682D01*
X158956762Y-131135044D01*
X159102841Y-131074536D01*
X159228282Y-130978282D01*
X159324536Y-130852841D01*
X159385044Y-130706762D01*
X159405682Y-130550000D01*
X159385044Y-130393238D01*
X159324536Y-130247159D01*
X159284838Y-130195423D01*
X159228282Y-130121717D01*
X159102841Y-130025464D01*
X158956761Y-129964955D01*
X158800000Y-129944318D01*
X158643238Y-129964955D01*
X158497158Y-130025464D01*
X158371717Y-130121717D01*
X158341754Y-130160767D01*
X158291330Y-130195423D01*
X158263212Y-130199500D01*
X153586189Y-130199500D01*
X153527998Y-130180593D01*
X153516185Y-130170504D01*
X152329496Y-128983814D01*
X152301719Y-128929297D01*
X152300500Y-128913810D01*
X152300500Y-126636787D01*
X152319407Y-126578596D01*
X152339232Y-126558245D01*
X152378282Y-126528282D01*
X152474536Y-126402841D01*
X152535044Y-126256762D01*
X152555682Y-126100000D01*
X152535044Y-125943238D01*
X152474536Y-125797159D01*
X152452139Y-125767970D01*
X152378282Y-125671717D01*
X152252841Y-125575464D01*
X152106761Y-125514955D01*
X151950000Y-125494318D01*
X151793238Y-125514955D01*
X151647158Y-125575464D01*
X151521717Y-125671717D01*
X151425464Y-125797158D01*
X151364955Y-125943238D01*
X151344318Y-126100000D01*
X127705500Y-126100000D01*
X127705500Y-107100000D01*
X130694318Y-107100000D01*
X130714955Y-107256761D01*
X130775464Y-107402841D01*
X130871717Y-107528282D01*
X130967971Y-107602139D01*
X130997159Y-107624536D01*
X131143238Y-107685044D01*
X131300000Y-107705682D01*
X131348799Y-107699257D01*
X131408958Y-107710407D01*
X131431724Y-107727406D01*
X132719198Y-109014880D01*
X132732070Y-109030732D01*
X132738563Y-109040669D01*
X132757800Y-109055641D01*
X132762689Y-109059447D01*
X132771880Y-109067563D01*
X132772688Y-109068371D01*
X132772691Y-109068373D01*
X132772693Y-109068375D01*
X132788768Y-109079852D01*
X132792038Y-109082290D01*
X132835186Y-109115873D01*
X132838697Y-109117680D01*
X132843932Y-109119238D01*
X132843934Y-109119240D01*
X132891067Y-109133272D01*
X132894963Y-109134520D01*
X132915775Y-109141664D01*
X132941512Y-109150500D01*
X132941514Y-109150500D01*
X132946673Y-109152271D01*
X132950591Y-109152842D01*
X132956044Y-109152616D01*
X132956046Y-109152617D01*
X133005176Y-109150584D01*
X133009267Y-109150500D01*
X143913810Y-109150500D01*
X143972001Y-109169407D01*
X143983814Y-109179495D01*
X147670505Y-112866187D01*
X147698281Y-112920702D01*
X147699500Y-112936189D01*
X147699500Y-114303381D01*
X147697393Y-114323696D01*
X147694957Y-114335313D01*
X147698740Y-114365661D01*
X147699500Y-114377907D01*
X147699500Y-114379041D01*
X147702751Y-114398528D01*
X147703340Y-114402572D01*
X147710101Y-114456804D01*
X147711312Y-114460585D01*
X147737322Y-114508646D01*
X147739195Y-114512285D01*
X147763198Y-114561385D01*
X147765568Y-114564564D01*
X147805764Y-114601567D01*
X147808717Y-114604399D01*
X148096663Y-114892345D01*
X148124440Y-114946862D01*
X148118123Y-115000234D01*
X148089956Y-115068236D01*
X148069318Y-115225000D01*
X148089955Y-115381761D01*
X148150464Y-115527841D01*
X148246717Y-115653282D01*
X148302389Y-115696000D01*
X148372159Y-115749536D01*
X148518238Y-115810044D01*
X148675000Y-115830682D01*
X148831762Y-115810044D01*
X148977841Y-115749536D01*
X149103282Y-115653282D01*
X149199536Y-115527841D01*
X149260044Y-115381762D01*
X149280682Y-115225000D01*
X149260044Y-115068238D01*
X149199536Y-114922159D01*
X149159058Y-114869407D01*
X149103282Y-114796717D01*
X148977841Y-114700464D01*
X148856572Y-114650232D01*
X148824454Y-114628772D01*
X148429496Y-114233814D01*
X148401719Y-114179297D01*
X148400500Y-114163810D01*
X148400500Y-112796619D01*
X148402607Y-112776303D01*
X148403036Y-112774255D01*
X148405043Y-112764685D01*
X148401260Y-112734337D01*
X148400500Y-112722092D01*
X148400500Y-112720964D01*
X148400500Y-112720960D01*
X148397238Y-112701421D01*
X148396663Y-112697467D01*
X148390573Y-112648608D01*
X148390572Y-112648607D01*
X148389896Y-112643179D01*
X148388694Y-112639429D01*
X148386092Y-112634621D01*
X148386092Y-112634619D01*
X148362676Y-112591351D01*
X148360808Y-112587721D01*
X148336802Y-112538616D01*
X148334435Y-112535440D01*
X148330418Y-112531742D01*
X148294209Y-112498409D01*
X148291282Y-112495601D01*
X145147034Y-109351352D01*
X145119257Y-109296835D01*
X145128828Y-109236403D01*
X145172093Y-109193138D01*
X145230238Y-109183929D01*
X145230316Y-109183343D01*
X145232294Y-109183603D01*
X145232525Y-109183567D01*
X145232967Y-109183692D01*
X145263684Y-109187735D01*
X145400000Y-109205682D01*
X145448799Y-109199257D01*
X145508958Y-109210407D01*
X145531724Y-109227406D01*
X151019198Y-114714880D01*
X151032070Y-114730732D01*
X151038563Y-114740669D01*
X151057800Y-114755641D01*
X151062689Y-114759447D01*
X151071880Y-114767563D01*
X151072688Y-114768371D01*
X151072691Y-114768373D01*
X151072693Y-114768375D01*
X151088768Y-114779852D01*
X151092038Y-114782290D01*
X151124825Y-114807809D01*
X151129829Y-114811704D01*
X151135186Y-114815873D01*
X151138697Y-114817680D01*
X151143932Y-114819238D01*
X151143934Y-114819240D01*
X151191067Y-114833272D01*
X151194963Y-114834520D01*
X151210624Y-114839896D01*
X151241512Y-114850500D01*
X151241514Y-114850500D01*
X151246673Y-114852271D01*
X151250591Y-114852842D01*
X151256044Y-114852616D01*
X151256046Y-114852617D01*
X151305176Y-114850584D01*
X151309267Y-114850500D01*
X151553212Y-114850500D01*
X151611403Y-114869407D01*
X151631754Y-114889233D01*
X151661717Y-114928282D01*
X151755488Y-115000234D01*
X151787159Y-115024536D01*
X151933238Y-115085044D01*
X152090000Y-115105682D01*
X152246762Y-115085044D01*
X152392841Y-115024536D01*
X152518282Y-114928282D01*
X152522981Y-114922158D01*
X152548246Y-114889233D01*
X152598670Y-114854577D01*
X152626788Y-114850500D01*
X157703381Y-114850500D01*
X157723697Y-114852607D01*
X157735315Y-114855043D01*
X157763393Y-114851542D01*
X157765663Y-114851260D01*
X157777908Y-114850500D01*
X157779042Y-114850500D01*
X157798521Y-114847249D01*
X157802545Y-114846661D01*
X157851393Y-114840573D01*
X157851393Y-114840572D01*
X157856822Y-114839896D01*
X157860572Y-114838694D01*
X157865379Y-114836092D01*
X157865381Y-114836092D01*
X157908655Y-114812671D01*
X157912259Y-114810816D01*
X157956484Y-114789198D01*
X157956485Y-114789196D01*
X157961398Y-114786795D01*
X157964550Y-114784444D01*
X157968254Y-114780420D01*
X157968258Y-114780418D01*
X158001602Y-114744195D01*
X158004364Y-114741316D01*
X158514884Y-114230796D01*
X158530734Y-114217926D01*
X158540669Y-114211437D01*
X158559450Y-114187305D01*
X158567570Y-114178111D01*
X158568375Y-114177307D01*
X158579874Y-114161200D01*
X158582291Y-114157960D01*
X158615880Y-114114805D01*
X158617675Y-114111318D01*
X158619237Y-114106068D01*
X158619239Y-114106067D01*
X158633286Y-114058882D01*
X158634512Y-114055055D01*
X158650500Y-114008488D01*
X158650500Y-114008484D01*
X158652272Y-114003323D01*
X158652842Y-113999412D01*
X158652616Y-113993955D01*
X158652617Y-113993954D01*
X158650585Y-113944823D01*
X158650500Y-113940732D01*
X158650500Y-113870089D01*
X158669407Y-113811898D01*
X158718907Y-113775934D01*
X158780093Y-113775934D01*
X158812300Y-113793558D01*
X158963550Y-113917685D01*
X159146046Y-114015232D01*
X159344066Y-114075300D01*
X159550000Y-114095583D01*
X159755934Y-114075300D01*
X159953954Y-114015232D01*
X160136450Y-113917685D01*
X160296410Y-113786410D01*
X160427685Y-113626450D01*
X160525232Y-113443954D01*
X160585300Y-113245934D01*
X160605583Y-113040000D01*
X160585300Y-112834066D01*
X160525232Y-112636046D01*
X160427685Y-112453550D01*
X160296410Y-112293590D01*
X160136450Y-112162315D01*
X159953954Y-112064768D01*
X159953953Y-112064767D01*
X159953952Y-112064767D01*
X159755933Y-112004699D01*
X159550000Y-111984416D01*
X159344066Y-112004699D01*
X159146047Y-112064767D01*
X158963549Y-112162315D01*
X158812305Y-112286438D01*
X158755328Y-112308738D01*
X158696125Y-112293290D01*
X158657310Y-112245993D01*
X158650500Y-112209910D01*
X158650500Y-111936188D01*
X158669407Y-111877997D01*
X158679497Y-111866184D01*
X158966186Y-111579496D01*
X159020702Y-111551719D01*
X159036189Y-111550500D01*
X160419747Y-111550500D01*
X160419748Y-111550500D01*
X160478231Y-111538867D01*
X160544552Y-111494552D01*
X160588867Y-111428231D01*
X160600500Y-111369748D01*
X160600500Y-109630252D01*
X160588867Y-109571769D01*
X160574162Y-109549761D01*
X160544552Y-109505447D01*
X160478231Y-109461133D01*
X160478230Y-109461133D01*
X160419748Y-109449500D01*
X158680252Y-109449500D01*
X158651010Y-109455316D01*
X158621768Y-109461133D01*
X158555447Y-109505447D01*
X158511133Y-109571768D01*
X158499500Y-109630253D01*
X158499500Y-111013808D01*
X158480593Y-111071999D01*
X158470504Y-111083812D01*
X158085117Y-111469199D01*
X158069265Y-111482072D01*
X158059330Y-111488563D01*
X158040546Y-111512696D01*
X158032437Y-111521880D01*
X158031627Y-111522690D01*
X158020134Y-111538786D01*
X158017690Y-111542062D01*
X157984139Y-111585169D01*
X157982313Y-111588716D01*
X157966717Y-111641097D01*
X157965470Y-111644990D01*
X157947728Y-111696672D01*
X157947157Y-111700592D01*
X157949415Y-111755175D01*
X157949500Y-111759267D01*
X157949500Y-112252184D01*
X157930593Y-112310375D01*
X157881093Y-112346339D01*
X157819907Y-112346339D01*
X157773973Y-112314990D01*
X157766714Y-112306145D01*
X157756410Y-112293590D01*
X157596450Y-112162315D01*
X157413954Y-112064768D01*
X157413953Y-112064767D01*
X157413952Y-112064767D01*
X157215933Y-112004699D01*
X157010000Y-111984416D01*
X156804064Y-112004699D01*
X156604826Y-112065136D01*
X156543653Y-112063935D01*
X156506085Y-112040403D01*
X155900801Y-111435119D01*
X155887925Y-111419262D01*
X155881436Y-111409330D01*
X155857309Y-111390551D01*
X155848118Y-111382435D01*
X155847310Y-111381627D01*
X155831228Y-111370145D01*
X155827949Y-111367700D01*
X155817060Y-111359225D01*
X155789126Y-111337483D01*
X155789124Y-111337482D01*
X155784822Y-111334134D01*
X155781292Y-111332316D01*
X155728909Y-111316720D01*
X155725016Y-111315472D01*
X155673328Y-111297728D01*
X155669408Y-111297157D01*
X155619065Y-111299239D01*
X155614823Y-111299415D01*
X155610733Y-111299500D01*
X151136190Y-111299500D01*
X151077999Y-111280593D01*
X151066186Y-111270504D01*
X150295681Y-110499999D01*
X155954416Y-110499999D01*
X155974699Y-110705933D01*
X156034767Y-110903952D01*
X156034768Y-110903954D01*
X156132315Y-111086450D01*
X156263590Y-111246410D01*
X156423550Y-111377685D01*
X156606046Y-111475232D01*
X156804066Y-111535300D01*
X157010000Y-111555583D01*
X157215934Y-111535300D01*
X157413954Y-111475232D01*
X157596450Y-111377685D01*
X157756410Y-111246410D01*
X157887685Y-111086450D01*
X157985232Y-110903954D01*
X158045300Y-110705934D01*
X158065583Y-110500000D01*
X158045300Y-110294066D01*
X157985232Y-110096046D01*
X157887685Y-109913550D01*
X157756410Y-109753590D01*
X157596450Y-109622315D01*
X157413954Y-109524768D01*
X157413953Y-109524767D01*
X157413952Y-109524767D01*
X157215933Y-109464699D01*
X157009999Y-109444416D01*
X156804066Y-109464699D01*
X156606047Y-109524767D01*
X156423549Y-109622315D01*
X156263590Y-109753590D01*
X156132315Y-109913549D01*
X156034767Y-110096047D01*
X155974699Y-110294066D01*
X155954416Y-110499999D01*
X150295681Y-110499999D01*
X145380801Y-105585119D01*
X145367925Y-105569262D01*
X145361436Y-105559330D01*
X145337309Y-105540551D01*
X145328118Y-105532435D01*
X145327310Y-105531627D01*
X145311228Y-105520145D01*
X145307949Y-105517700D01*
X145297060Y-105509225D01*
X145269126Y-105487483D01*
X145269124Y-105487482D01*
X145264822Y-105484134D01*
X145261292Y-105482316D01*
X145208909Y-105466720D01*
X145205016Y-105465472D01*
X145153328Y-105447728D01*
X145149408Y-105447157D01*
X145099065Y-105449239D01*
X145094823Y-105449415D01*
X145090733Y-105449500D01*
X143336788Y-105449500D01*
X143278597Y-105430593D01*
X143258246Y-105410767D01*
X143228282Y-105371717D01*
X143102841Y-105275464D01*
X142956761Y-105214955D01*
X142800000Y-105194318D01*
X142643238Y-105214955D01*
X142497158Y-105275464D01*
X142371717Y-105371717D01*
X142275464Y-105497158D01*
X142214955Y-105643238D01*
X142194318Y-105799999D01*
X142214955Y-105956761D01*
X142275464Y-106102841D01*
X142371717Y-106228282D01*
X142428637Y-106271958D01*
X142463293Y-106322382D01*
X142461692Y-106383547D01*
X142424445Y-106432088D01*
X142368370Y-106449500D01*
X141986190Y-106449500D01*
X141927999Y-106430593D01*
X141916186Y-106420504D01*
X139779496Y-104283814D01*
X139751719Y-104229297D01*
X139750500Y-104213810D01*
X139750500Y-102449999D01*
X162344318Y-102449999D01*
X162364955Y-102606761D01*
X162425464Y-102752841D01*
X162521717Y-102878282D01*
X162617971Y-102952139D01*
X162647159Y-102974536D01*
X162793238Y-103035044D01*
X162950000Y-103055682D01*
X163106762Y-103035044D01*
X163252841Y-102974536D01*
X163378282Y-102878282D01*
X163474536Y-102752841D01*
X163535044Y-102606762D01*
X163555682Y-102450000D01*
X163535044Y-102293238D01*
X163474536Y-102147159D01*
X163378282Y-102021718D01*
X163339231Y-101991752D01*
X163304576Y-101941326D01*
X163300500Y-101913211D01*
X163300500Y-97386189D01*
X163319407Y-97327998D01*
X163329490Y-97316191D01*
X166768276Y-93877404D01*
X166822791Y-93849629D01*
X166851197Y-93849257D01*
X166900000Y-93855682D01*
X167056762Y-93835044D01*
X167202841Y-93774536D01*
X167328282Y-93678282D01*
X167424536Y-93552841D01*
X167485044Y-93406762D01*
X167505682Y-93250000D01*
X167485044Y-93093238D01*
X167424536Y-92947159D01*
X167369523Y-92875464D01*
X167328282Y-92821717D01*
X167202841Y-92725464D01*
X167056761Y-92664955D01*
X166900000Y-92644318D01*
X166743238Y-92664955D01*
X166597158Y-92725464D01*
X166471717Y-92821717D01*
X166375464Y-92947158D01*
X166314955Y-93093238D01*
X166294318Y-93250000D01*
X166300742Y-93298799D01*
X166289591Y-93358960D01*
X166272593Y-93381724D01*
X162735117Y-96919199D01*
X162719265Y-96932072D01*
X162709330Y-96938563D01*
X162690546Y-96962696D01*
X162682437Y-96971880D01*
X162681627Y-96972690D01*
X162670134Y-96988786D01*
X162667690Y-96992062D01*
X162634139Y-97035169D01*
X162632313Y-97038716D01*
X162616717Y-97091097D01*
X162615470Y-97094990D01*
X162597728Y-97146672D01*
X162597157Y-97150592D01*
X162599415Y-97205175D01*
X162599500Y-97209267D01*
X162599500Y-101913211D01*
X162580593Y-101971402D01*
X162560769Y-101991752D01*
X162521717Y-102021718D01*
X162425464Y-102147158D01*
X162364955Y-102293238D01*
X162344318Y-102449999D01*
X139750500Y-102449999D01*
X139750500Y-94936787D01*
X139769407Y-94878596D01*
X139789232Y-94858245D01*
X139828282Y-94828282D01*
X139924536Y-94702841D01*
X139985044Y-94556762D01*
X140005682Y-94400000D01*
X139985044Y-94243238D01*
X139924536Y-94097159D01*
X139859102Y-94011883D01*
X139828282Y-93971717D01*
X139702841Y-93875464D01*
X139556761Y-93814955D01*
X139400000Y-93794318D01*
X139243238Y-93814955D01*
X139097158Y-93875464D01*
X138971717Y-93971717D01*
X138875464Y-94097158D01*
X138814955Y-94243238D01*
X138794318Y-94400000D01*
X138814955Y-94556761D01*
X138875464Y-94702841D01*
X138971716Y-94828281D01*
X138992499Y-94844228D01*
X139010766Y-94858244D01*
X139045423Y-94908668D01*
X139049500Y-94936787D01*
X139049500Y-104353381D01*
X139047393Y-104373696D01*
X139044957Y-104385313D01*
X139048740Y-104415661D01*
X139049500Y-104427907D01*
X139049500Y-104429041D01*
X139052751Y-104448528D01*
X139053340Y-104452572D01*
X139060101Y-104506804D01*
X139061312Y-104510585D01*
X139087322Y-104558646D01*
X139089195Y-104562285D01*
X139113198Y-104611385D01*
X139115568Y-104614564D01*
X139155764Y-104651567D01*
X139158717Y-104654399D01*
X141519198Y-107014880D01*
X141532070Y-107030732D01*
X141538563Y-107040669D01*
X141557800Y-107055641D01*
X141562689Y-107059447D01*
X141571880Y-107067563D01*
X141572691Y-107068374D01*
X141588767Y-107079852D01*
X141592048Y-107082298D01*
X141635186Y-107115873D01*
X141638698Y-107117681D01*
X141643933Y-107119239D01*
X141643934Y-107119240D01*
X141691085Y-107133277D01*
X141694967Y-107134520D01*
X141741512Y-107150500D01*
X141741514Y-107150500D01*
X141746673Y-107152271D01*
X141750593Y-107152842D01*
X141756045Y-107152616D01*
X141756047Y-107152617D01*
X141805186Y-107150584D01*
X141809277Y-107150500D01*
X144993810Y-107150500D01*
X145052001Y-107169407D01*
X145063814Y-107179496D01*
X145789534Y-107905216D01*
X145817311Y-107959733D01*
X145807740Y-108020165D01*
X145764475Y-108063430D01*
X145704043Y-108073001D01*
X145681644Y-108066684D01*
X145556761Y-108014955D01*
X145420637Y-107997034D01*
X145400000Y-107994318D01*
X145399999Y-107994318D01*
X145351200Y-108000742D01*
X145291039Y-107989591D01*
X145268275Y-107972593D01*
X144880801Y-107585119D01*
X144867925Y-107569262D01*
X144861436Y-107559330D01*
X144837309Y-107540551D01*
X144828118Y-107532435D01*
X144827310Y-107531627D01*
X144811228Y-107520145D01*
X144807949Y-107517700D01*
X144797060Y-107509225D01*
X144769126Y-107487483D01*
X144769124Y-107487482D01*
X144764822Y-107484134D01*
X144761292Y-107482316D01*
X144708909Y-107466720D01*
X144705016Y-107465472D01*
X144653328Y-107447728D01*
X144649408Y-107447157D01*
X144599065Y-107449239D01*
X144594823Y-107449415D01*
X144590733Y-107449500D01*
X141386189Y-107449500D01*
X141327998Y-107430593D01*
X141316185Y-107420504D01*
X138579496Y-104683814D01*
X138551719Y-104629297D01*
X138550500Y-104613810D01*
X138550500Y-93946619D01*
X138552607Y-93926303D01*
X138553036Y-93924255D01*
X138555043Y-93914685D01*
X138551260Y-93884337D01*
X138550500Y-93872092D01*
X138550500Y-93870959D01*
X138547249Y-93851477D01*
X138546659Y-93847430D01*
X138540573Y-93798607D01*
X138540572Y-93798605D01*
X138539896Y-93793182D01*
X138538693Y-93789426D01*
X138530634Y-93774535D01*
X138512681Y-93741360D01*
X138510813Y-93737731D01*
X138493756Y-93702841D01*
X138489198Y-93693516D01*
X138489196Y-93693514D01*
X138486801Y-93688614D01*
X138484436Y-93685441D01*
X138476659Y-93678282D01*
X138444221Y-93648420D01*
X138441294Y-93645612D01*
X138327406Y-93531724D01*
X138299629Y-93477207D01*
X138299257Y-93448802D01*
X138305682Y-93400000D01*
X138285044Y-93243238D01*
X138224536Y-93097159D01*
X138149982Y-92999998D01*
X138128282Y-92971717D01*
X138002841Y-92875464D01*
X137856761Y-92814955D01*
X137700000Y-92794318D01*
X137543238Y-92814955D01*
X137397158Y-92875464D01*
X137271717Y-92971717D01*
X137175464Y-93097158D01*
X137114955Y-93243238D01*
X137094318Y-93399999D01*
X137114955Y-93556761D01*
X137175464Y-93702841D01*
X137271717Y-93828282D01*
X137336826Y-93878241D01*
X137397159Y-93924536D01*
X137543238Y-93985044D01*
X137700000Y-94005682D01*
X137737578Y-94000734D01*
X137797738Y-94011883D01*
X137839855Y-94056265D01*
X137849500Y-94098887D01*
X137849500Y-104753381D01*
X137847393Y-104773696D01*
X137844957Y-104785313D01*
X137848740Y-104815661D01*
X137849500Y-104827907D01*
X137849500Y-104829041D01*
X137852751Y-104848528D01*
X137853340Y-104852572D01*
X137860101Y-104906804D01*
X137861312Y-104910585D01*
X137887322Y-104958646D01*
X137889195Y-104962285D01*
X137913198Y-105011385D01*
X137915568Y-105014564D01*
X137955764Y-105051567D01*
X137958717Y-105054399D01*
X140919198Y-108014880D01*
X140932070Y-108030732D01*
X140938563Y-108040669D01*
X140957800Y-108055641D01*
X140962689Y-108059447D01*
X140971880Y-108067563D01*
X140972691Y-108068374D01*
X140988767Y-108079852D01*
X140992048Y-108082298D01*
X141035186Y-108115873D01*
X141038697Y-108117680D01*
X141043932Y-108119238D01*
X141043934Y-108119240D01*
X141091067Y-108133272D01*
X141094963Y-108134520D01*
X141115775Y-108141664D01*
X141141512Y-108150500D01*
X141141514Y-108150500D01*
X141146673Y-108152271D01*
X141150592Y-108152842D01*
X141156044Y-108152616D01*
X141156046Y-108152617D01*
X141205186Y-108150584D01*
X141209277Y-108150500D01*
X144413811Y-108150500D01*
X144472002Y-108169407D01*
X144483814Y-108179496D01*
X144772592Y-108468273D01*
X144800370Y-108522790D01*
X144800742Y-108551198D01*
X144794318Y-108599998D01*
X144816657Y-108769684D01*
X144812099Y-108770284D01*
X144814913Y-108806083D01*
X144782938Y-108858248D01*
X144726408Y-108881657D01*
X144666914Y-108867367D01*
X144648647Y-108852965D01*
X144380801Y-108585119D01*
X144367925Y-108569262D01*
X144361436Y-108559330D01*
X144337309Y-108540551D01*
X144328118Y-108532435D01*
X144327310Y-108531627D01*
X144311228Y-108520145D01*
X144307949Y-108517700D01*
X144288800Y-108502796D01*
X144269126Y-108487483D01*
X144269124Y-108487482D01*
X144264822Y-108484134D01*
X144261292Y-108482316D01*
X144208909Y-108466720D01*
X144205016Y-108465472D01*
X144153328Y-108447728D01*
X144149408Y-108447157D01*
X144099065Y-108449239D01*
X144094823Y-108449415D01*
X144090733Y-108449500D01*
X133186190Y-108449500D01*
X133127999Y-108430593D01*
X133116186Y-108420504D01*
X131927406Y-107231724D01*
X131899629Y-107177207D01*
X131899257Y-107148802D01*
X131905682Y-107100000D01*
X131885044Y-106943238D01*
X131824536Y-106797159D01*
X131802139Y-106767971D01*
X131728282Y-106671717D01*
X131602841Y-106575464D01*
X131456761Y-106514955D01*
X131300000Y-106494318D01*
X131143238Y-106514955D01*
X130997158Y-106575464D01*
X130871717Y-106671717D01*
X130775464Y-106797158D01*
X130714955Y-106943238D01*
X130694318Y-107100000D01*
X127705500Y-107100000D01*
X127705500Y-96895848D01*
X127705455Y-96891546D01*
X127705454Y-96891437D01*
X127705346Y-96886342D01*
X127694462Y-96824522D01*
X127694461Y-96824516D01*
X127671978Y-96758362D01*
X127670909Y-96755754D01*
X127670899Y-96755614D01*
X127670876Y-96755552D01*
X127670899Y-96755610D01*
X127666341Y-96694743D01*
X127698507Y-96642695D01*
X127710386Y-96634056D01*
X127826562Y-96562124D01*
X127990981Y-96412236D01*
X128125058Y-96234689D01*
X128224229Y-96035528D01*
X128285115Y-95821536D01*
X128305643Y-95600000D01*
X128285115Y-95378464D01*
X128224229Y-95164472D01*
X128125058Y-94965311D01*
X127990981Y-94787764D01*
X127826562Y-94637876D01*
X127826559Y-94637874D01*
X127709608Y-94565461D01*
X127670087Y-94518753D01*
X127665568Y-94457734D01*
X127675323Y-94432961D01*
X127677490Y-94429088D01*
X127697175Y-94362049D01*
X127705500Y-94304151D01*
X127705500Y-90395849D01*
X127705455Y-90391548D01*
X127705454Y-90391439D01*
X127705346Y-90386343D01*
X127694462Y-90324522D01*
X127694461Y-90324516D01*
X127671978Y-90258362D01*
X127670909Y-90255754D01*
X127670899Y-90255614D01*
X127670876Y-90255552D01*
X127670899Y-90255610D01*
X127666341Y-90194743D01*
X127698507Y-90142695D01*
X127710386Y-90134056D01*
X127826562Y-90062124D01*
X127990981Y-89912236D01*
X128125058Y-89734689D01*
X128224229Y-89535528D01*
X128285115Y-89321536D01*
X128305643Y-89100000D01*
X128285115Y-88878464D01*
X128224229Y-88664472D01*
X128125058Y-88465311D01*
X127990981Y-88287764D01*
X127826562Y-88137876D01*
X127826559Y-88137874D01*
X127709608Y-88065461D01*
X127670087Y-88018753D01*
X127665568Y-87957734D01*
X127675323Y-87932961D01*
X127677490Y-87929088D01*
X127697175Y-87862049D01*
X127705500Y-87804151D01*
X127705500Y-84124500D01*
X127703949Y-84110083D01*
X127716529Y-84050205D01*
X127761900Y-84009155D01*
X127802383Y-84000500D01*
X129208784Y-84000500D01*
X129266975Y-84019407D01*
G37*
%TD.AperFunction*%
%TA.AperFunction,Conductor*%
G36*
X181254191Y-129723907D02*
G01*
X181290155Y-129773407D01*
X181295000Y-129804000D01*
X181295000Y-132196000D01*
X181276093Y-132254191D01*
X181226593Y-132290155D01*
X181196000Y-132295000D01*
X178804000Y-132295000D01*
X178745809Y-132276093D01*
X178709845Y-132226593D01*
X178705000Y-132196000D01*
X178705000Y-129804000D01*
X178723907Y-129745809D01*
X178773407Y-129709845D01*
X178804000Y-129705000D01*
X181196000Y-129705000D01*
X181254191Y-129723907D01*
G37*
%TD.AperFunction*%
%TA.AperFunction,Conductor*%
G36*
X120754191Y-119723907D02*
G01*
X120790155Y-119773407D01*
X120795000Y-119804000D01*
X120795000Y-122196000D01*
X120776093Y-122254191D01*
X120726593Y-122290155D01*
X120696000Y-122295000D01*
X118304000Y-122295000D01*
X118245809Y-122276093D01*
X118209845Y-122226593D01*
X118205000Y-122196000D01*
X118205000Y-119804000D01*
X118223907Y-119745809D01*
X118273407Y-119709845D01*
X118304000Y-119705000D01*
X120696000Y-119705000D01*
X120754191Y-119723907D01*
G37*
%TD.AperFunction*%
%TA.AperFunction,Conductor*%
G36*
X181254191Y-113223907D02*
G01*
X181290155Y-113273407D01*
X181295000Y-113304000D01*
X181295000Y-115696000D01*
X181276093Y-115754191D01*
X181226593Y-115790155D01*
X181196000Y-115795000D01*
X178804000Y-115795000D01*
X178745809Y-115776093D01*
X178709845Y-115726593D01*
X178705000Y-115696000D01*
X178705000Y-113304000D01*
X178723907Y-113245809D01*
X178773407Y-113209845D01*
X178804000Y-113205000D01*
X181196000Y-113205000D01*
X181254191Y-113223907D01*
G37*
%TD.AperFunction*%
%TA.AperFunction,Conductor*%
G36*
X120754191Y-103223907D02*
G01*
X120790155Y-103273407D01*
X120795000Y-103304000D01*
X120795000Y-105696000D01*
X120776093Y-105754191D01*
X120726593Y-105790155D01*
X120696000Y-105795000D01*
X118304000Y-105795000D01*
X118245809Y-105776093D01*
X118209845Y-105726593D01*
X118205000Y-105696000D01*
X118205000Y-103304000D01*
X118223907Y-103245809D01*
X118273407Y-103209845D01*
X118304000Y-103205000D01*
X120696000Y-103205000D01*
X120754191Y-103223907D01*
G37*
%TD.AperFunction*%
%TA.AperFunction,Conductor*%
G36*
X181254191Y-96723907D02*
G01*
X181290155Y-96773407D01*
X181295000Y-96804000D01*
X181295000Y-99196000D01*
X181276093Y-99254191D01*
X181226593Y-99290155D01*
X181196000Y-99295000D01*
X178804000Y-99295000D01*
X178745809Y-99276093D01*
X178709845Y-99226593D01*
X178705000Y-99196000D01*
X178705000Y-96804000D01*
X178723907Y-96745809D01*
X178773407Y-96709845D01*
X178804000Y-96705000D01*
X181196000Y-96705000D01*
X181254191Y-96723907D01*
G37*
%TD.AperFunction*%
%TA.AperFunction,Conductor*%
G36*
X120754191Y-86723907D02*
G01*
X120790155Y-86773407D01*
X120795000Y-86804000D01*
X120795000Y-89196000D01*
X120776093Y-89254191D01*
X120726593Y-89290155D01*
X120696000Y-89295000D01*
X118304000Y-89295000D01*
X118245809Y-89276093D01*
X118209845Y-89226593D01*
X118205000Y-89196000D01*
X118205000Y-86804000D01*
X118223907Y-86745809D01*
X118273407Y-86709845D01*
X118304000Y-86705000D01*
X120696000Y-86705000D01*
X120754191Y-86723907D01*
G37*
%TD.AperFunction*%
%TD*%
%TA.AperFunction,Conductor*%
%TO.N,VCC*%
G36*
X127443039Y-84020185D02*
G01*
X127488794Y-84072989D01*
X127500000Y-84124500D01*
X127500000Y-87804151D01*
X127480315Y-87871190D01*
X127427511Y-87916945D01*
X127358353Y-87926889D01*
X127353240Y-87926044D01*
X127211243Y-87899500D01*
X126988757Y-87899500D01*
X126770060Y-87940381D01*
X126770060Y-87940382D01*
X126562595Y-88020754D01*
X126373437Y-88137875D01*
X126209019Y-88287762D01*
X126074941Y-88465311D01*
X125975769Y-88664473D01*
X125914885Y-88878462D01*
X125894357Y-89100000D01*
X125914885Y-89321537D01*
X125975769Y-89535526D01*
X126074941Y-89734688D01*
X126209019Y-89912237D01*
X126373437Y-90062124D01*
X126562595Y-90179245D01*
X126562597Y-90179245D01*
X126562599Y-90179247D01*
X126770060Y-90259618D01*
X126988757Y-90300500D01*
X126988759Y-90300500D01*
X127211241Y-90300500D01*
X127211243Y-90300500D01*
X127353216Y-90273960D01*
X127422730Y-90280991D01*
X127477408Y-90324488D01*
X127499891Y-90390642D01*
X127500000Y-90395849D01*
X127500000Y-94304151D01*
X127480315Y-94371190D01*
X127427511Y-94416945D01*
X127358353Y-94426889D01*
X127353240Y-94426044D01*
X127211243Y-94399500D01*
X126988757Y-94399500D01*
X126770060Y-94440382D01*
X126562595Y-94520754D01*
X126373437Y-94637875D01*
X126209019Y-94787762D01*
X126074941Y-94965311D01*
X125975769Y-95164473D01*
X125914885Y-95378462D01*
X125894357Y-95600000D01*
X125914885Y-95821537D01*
X125975769Y-96035526D01*
X126074941Y-96234688D01*
X126209019Y-96412237D01*
X126373437Y-96562124D01*
X126562595Y-96679245D01*
X126562597Y-96679245D01*
X126562599Y-96679247D01*
X126770060Y-96759618D01*
X126988757Y-96800500D01*
X126988759Y-96800500D01*
X127211241Y-96800500D01*
X127211243Y-96800500D01*
X127353216Y-96773960D01*
X127422730Y-96780991D01*
X127477408Y-96824488D01*
X127499891Y-96890642D01*
X127500000Y-96895848D01*
X127500000Y-130500000D01*
X129000000Y-132000000D01*
X170500000Y-132000000D01*
X172000000Y-130500000D01*
X172000000Y-126000000D01*
X178494356Y-126000000D01*
X178514891Y-126247816D01*
X178514891Y-126247819D01*
X178514892Y-126247821D01*
X178575937Y-126488881D01*
X178593220Y-126528282D01*
X178675825Y-126716604D01*
X178675827Y-126716607D01*
X178811836Y-126924785D01*
X178980256Y-127107738D01*
X178980259Y-127107740D01*
X179176485Y-127260470D01*
X179176487Y-127260471D01*
X179176491Y-127260474D01*
X179395190Y-127378828D01*
X179630386Y-127459571D01*
X179875665Y-127500500D01*
X180124335Y-127500500D01*
X180369614Y-127459571D01*
X180604810Y-127378828D01*
X180823509Y-127260474D01*
X181019744Y-127107738D01*
X181188164Y-126924785D01*
X181324173Y-126716607D01*
X181424063Y-126488881D01*
X181485108Y-126247821D01*
X181505643Y-126000000D01*
X181485108Y-125752179D01*
X181424063Y-125511119D01*
X181324173Y-125283393D01*
X181188164Y-125075215D01*
X181019744Y-124892262D01*
X180997612Y-124875036D01*
X180823514Y-124739529D01*
X180823510Y-124739526D01*
X180823509Y-124739526D01*
X180604810Y-124621172D01*
X180604806Y-124621170D01*
X180604805Y-124621170D01*
X180369615Y-124540429D01*
X180124335Y-124499500D01*
X179875665Y-124499500D01*
X179630384Y-124540429D01*
X179395194Y-124621170D01*
X179176485Y-124739529D01*
X178980259Y-124892259D01*
X178811837Y-125075214D01*
X178675825Y-125283395D01*
X178585780Y-125488678D01*
X178575937Y-125511119D01*
X178559643Y-125575464D01*
X178514891Y-125752183D01*
X178494356Y-126000000D01*
X172000000Y-126000000D01*
X172000000Y-115819748D01*
X178499500Y-115819748D01*
X178511132Y-115878230D01*
X178555447Y-115944552D01*
X178621769Y-115988867D01*
X178680251Y-116000500D01*
X178680252Y-116000500D01*
X181319749Y-116000500D01*
X181348989Y-115994683D01*
X181378231Y-115988867D01*
X181444552Y-115944552D01*
X181488867Y-115878231D01*
X181500500Y-115819748D01*
X181500500Y-113180252D01*
X181488867Y-113121769D01*
X181452971Y-113068047D01*
X181444552Y-113055447D01*
X181378230Y-113011132D01*
X181319749Y-112999500D01*
X181319748Y-112999500D01*
X178680252Y-112999500D01*
X178680251Y-112999500D01*
X178621769Y-113011132D01*
X178555447Y-113055447D01*
X178511132Y-113121769D01*
X178499500Y-113180251D01*
X178499500Y-115819748D01*
X172000000Y-115819748D01*
X172000000Y-109499999D01*
X178494356Y-109499999D01*
X178514891Y-109747816D01*
X178514891Y-109747819D01*
X178514892Y-109747821D01*
X178575937Y-109988881D01*
X178620960Y-110091523D01*
X178675825Y-110216604D01*
X178675827Y-110216607D01*
X178811836Y-110424785D01*
X178980256Y-110607738D01*
X178980259Y-110607740D01*
X179176485Y-110760470D01*
X179176487Y-110760471D01*
X179176491Y-110760474D01*
X179395190Y-110878828D01*
X179630386Y-110959571D01*
X179875665Y-111000500D01*
X180124335Y-111000500D01*
X180369614Y-110959571D01*
X180604810Y-110878828D01*
X180823509Y-110760474D01*
X181019744Y-110607738D01*
X181188164Y-110424785D01*
X181324173Y-110216607D01*
X181424063Y-109988881D01*
X181485108Y-109747821D01*
X181505643Y-109500000D01*
X181485108Y-109252179D01*
X181424063Y-109011119D01*
X181324173Y-108783393D01*
X181188164Y-108575215D01*
X181019744Y-108392262D01*
X180897556Y-108297159D01*
X180823514Y-108239529D01*
X180823510Y-108239526D01*
X180823509Y-108239526D01*
X180604810Y-108121172D01*
X180604806Y-108121170D01*
X180604805Y-108121170D01*
X180369615Y-108040429D01*
X180124335Y-107999500D01*
X179875665Y-107999500D01*
X179630384Y-108040429D01*
X179395194Y-108121170D01*
X179176485Y-108239529D01*
X178980259Y-108392259D01*
X178980256Y-108392261D01*
X178980256Y-108392262D01*
X178811836Y-108575215D01*
X178795643Y-108600000D01*
X178675825Y-108783395D01*
X178623432Y-108902841D01*
X178575937Y-109011119D01*
X178540641Y-109150500D01*
X178514891Y-109252183D01*
X178494356Y-109499999D01*
X172000000Y-109499999D01*
X172000000Y-99319748D01*
X178499500Y-99319748D01*
X178511132Y-99378230D01*
X178555447Y-99444552D01*
X178621769Y-99488867D01*
X178680251Y-99500500D01*
X178680252Y-99500500D01*
X181319749Y-99500500D01*
X181348989Y-99494683D01*
X181378231Y-99488867D01*
X181444552Y-99444552D01*
X181488867Y-99378231D01*
X181500500Y-99319748D01*
X181500500Y-96680252D01*
X181488867Y-96621769D01*
X181449013Y-96562124D01*
X181444552Y-96555447D01*
X181378230Y-96511132D01*
X181319749Y-96499500D01*
X181319748Y-96499500D01*
X178680252Y-96499500D01*
X178680251Y-96499500D01*
X178621769Y-96511132D01*
X178555447Y-96555447D01*
X178511132Y-96621769D01*
X178499500Y-96680251D01*
X178499500Y-99319748D01*
X172000000Y-99319748D01*
X172000000Y-92999999D01*
X178494356Y-92999999D01*
X178514891Y-93247816D01*
X178514891Y-93247819D01*
X178514892Y-93247821D01*
X178575937Y-93488881D01*
X178620960Y-93591523D01*
X178675825Y-93716604D01*
X178675827Y-93716607D01*
X178811836Y-93924785D01*
X178980256Y-94107738D01*
X178980259Y-94107740D01*
X179176485Y-94260470D01*
X179176487Y-94260471D01*
X179176491Y-94260474D01*
X179395190Y-94378828D01*
X179630386Y-94459571D01*
X179875665Y-94500500D01*
X180124335Y-94500500D01*
X180369614Y-94459571D01*
X180604810Y-94378828D01*
X180823509Y-94260474D01*
X181019744Y-94107738D01*
X181188164Y-93924785D01*
X181324173Y-93716607D01*
X181424063Y-93488881D01*
X181485108Y-93247821D01*
X181505643Y-93000000D01*
X181503299Y-92971718D01*
X181490310Y-92814956D01*
X181485108Y-92752179D01*
X181424063Y-92511119D01*
X181324173Y-92283393D01*
X181188164Y-92075215D01*
X181019744Y-91892262D01*
X180997612Y-91875036D01*
X180823514Y-91739529D01*
X180823510Y-91739526D01*
X180823509Y-91739526D01*
X180604810Y-91621172D01*
X180604806Y-91621170D01*
X180604805Y-91621170D01*
X180369615Y-91540429D01*
X180124335Y-91499500D01*
X179875665Y-91499500D01*
X179630384Y-91540429D01*
X179395194Y-91621170D01*
X179176485Y-91739529D01*
X178980259Y-91892259D01*
X178811837Y-92075214D01*
X178675825Y-92283395D01*
X178575938Y-92511117D01*
X178514891Y-92752183D01*
X178494356Y-92999999D01*
X172000000Y-92999999D01*
X172000000Y-84124500D01*
X172019685Y-84057461D01*
X172072489Y-84011706D01*
X172124000Y-84000500D01*
X185495935Y-84000500D01*
X185504042Y-84000764D01*
X185583743Y-84005988D01*
X185761590Y-84018709D01*
X185776904Y-84020772D01*
X185889441Y-84043157D01*
X186030277Y-84073794D01*
X186043690Y-84077518D01*
X186157725Y-84116228D01*
X186161074Y-84117420D01*
X186288808Y-84165062D01*
X186300300Y-84170024D01*
X186410687Y-84224461D01*
X186415187Y-84226798D01*
X186532478Y-84290844D01*
X186541942Y-84296574D01*
X186645269Y-84365615D01*
X186650688Y-84369450D01*
X186756727Y-84448830D01*
X186764145Y-84454844D01*
X186857976Y-84537131D01*
X186863898Y-84542678D01*
X186957320Y-84636100D01*
X186962867Y-84642022D01*
X187045150Y-84735848D01*
X187051173Y-84743278D01*
X187088691Y-84793396D01*
X187130548Y-84849310D01*
X187134383Y-84854729D01*
X187203424Y-84958056D01*
X187209154Y-84967520D01*
X187273183Y-85084779D01*
X187275564Y-85089363D01*
X187329969Y-85199687D01*
X187334938Y-85211196D01*
X187382556Y-85338863D01*
X187383793Y-85342338D01*
X187422470Y-85456276D01*
X187426217Y-85469777D01*
X187456847Y-85610580D01*
X187479230Y-85723107D01*
X187481290Y-85738414D01*
X187494017Y-85916350D01*
X187499235Y-85995956D01*
X187499500Y-86004051D01*
X187499500Y-145495947D01*
X187499234Y-145504058D01*
X187494017Y-145583648D01*
X187481291Y-145761574D01*
X187479225Y-145776916D01*
X187456851Y-145889402D01*
X187426212Y-146030244D01*
X187422473Y-146043714D01*
X187383793Y-146157660D01*
X187382556Y-146161135D01*
X187334938Y-146288802D01*
X187329969Y-146300311D01*
X187275564Y-146410635D01*
X187273183Y-146415219D01*
X187209154Y-146532478D01*
X187203424Y-146541942D01*
X187134383Y-146645269D01*
X187130548Y-146650688D01*
X187051181Y-146756711D01*
X187045142Y-146764160D01*
X186962867Y-146857976D01*
X186957320Y-146863898D01*
X186863898Y-146957320D01*
X186857976Y-146962867D01*
X186764160Y-147045142D01*
X186756711Y-147051181D01*
X186650688Y-147130548D01*
X186645269Y-147134383D01*
X186541942Y-147203424D01*
X186532478Y-147209154D01*
X186415219Y-147273183D01*
X186410635Y-147275564D01*
X186300311Y-147329969D01*
X186288802Y-147334938D01*
X186161135Y-147382556D01*
X186157660Y-147383793D01*
X186043722Y-147422470D01*
X186030221Y-147426217D01*
X185889419Y-147456847D01*
X185842048Y-147466270D01*
X185776896Y-147479229D01*
X185761584Y-147481290D01*
X185583649Y-147494017D01*
X185560221Y-147495552D01*
X185504030Y-147499235D01*
X185495948Y-147499500D01*
X114004053Y-147499500D01*
X113995943Y-147499234D01*
X113916352Y-147494017D01*
X113738424Y-147481291D01*
X113723082Y-147479225D01*
X113665195Y-147467710D01*
X113610600Y-147456851D01*
X113469746Y-147426210D01*
X113456284Y-147422473D01*
X113456275Y-147422470D01*
X113385362Y-147398398D01*
X113342338Y-147383793D01*
X113338863Y-147382556D01*
X113211196Y-147334938D01*
X113199687Y-147329969D01*
X113134947Y-147298043D01*
X113089348Y-147275556D01*
X113084779Y-147273183D01*
X112967520Y-147209154D01*
X112958056Y-147203424D01*
X112854729Y-147134383D01*
X112849310Y-147130548D01*
X112793396Y-147088691D01*
X112743278Y-147051173D01*
X112735848Y-147045150D01*
X112642022Y-146962867D01*
X112636100Y-146957320D01*
X112542678Y-146863898D01*
X112537131Y-146857976D01*
X112505450Y-146821851D01*
X112454844Y-146764145D01*
X112448830Y-146756727D01*
X112369450Y-146650688D01*
X112365615Y-146645269D01*
X112296574Y-146541942D01*
X112290844Y-146532478D01*
X112226798Y-146415187D01*
X112224461Y-146410687D01*
X112170024Y-146300300D01*
X112165060Y-146288802D01*
X112117420Y-146161074D01*
X112116228Y-146157725D01*
X112077522Y-146043703D01*
X112073786Y-146030240D01*
X112043157Y-145889441D01*
X112020767Y-145776879D01*
X112018709Y-145761593D01*
X112005988Y-145583743D01*
X112000765Y-145504041D01*
X112000500Y-145495936D01*
X112000500Y-141319748D01*
X115999500Y-141319748D01*
X116011132Y-141378230D01*
X116055447Y-141444552D01*
X116121769Y-141488867D01*
X116180251Y-141500500D01*
X116180252Y-141500500D01*
X118819749Y-141500500D01*
X118848989Y-141494683D01*
X118878231Y-141488867D01*
X118944552Y-141444552D01*
X118988867Y-141378231D01*
X119000500Y-141319748D01*
X119000500Y-140000000D01*
X120994356Y-140000000D01*
X121014891Y-140247816D01*
X121014891Y-140247819D01*
X121014892Y-140247821D01*
X121075937Y-140488881D01*
X121120960Y-140591523D01*
X121175825Y-140716604D01*
X121175827Y-140716607D01*
X121311836Y-140924785D01*
X121480256Y-141107738D01*
X121480259Y-141107740D01*
X121676485Y-141260470D01*
X121676487Y-141260471D01*
X121676491Y-141260474D01*
X121895190Y-141378828D01*
X122130386Y-141459571D01*
X122375665Y-141500500D01*
X122624335Y-141500500D01*
X122869614Y-141459571D01*
X123104810Y-141378828D01*
X123213980Y-141319748D01*
X132499500Y-141319748D01*
X132511132Y-141378230D01*
X132555447Y-141444552D01*
X132621769Y-141488867D01*
X132680251Y-141500500D01*
X132680252Y-141500500D01*
X135319749Y-141500500D01*
X135348989Y-141494683D01*
X135378231Y-141488867D01*
X135444552Y-141444552D01*
X135488867Y-141378231D01*
X135500500Y-141319748D01*
X135500500Y-140000000D01*
X137494356Y-140000000D01*
X137514891Y-140247816D01*
X137514891Y-140247819D01*
X137514892Y-140247821D01*
X137575937Y-140488881D01*
X137620960Y-140591523D01*
X137675825Y-140716604D01*
X137675827Y-140716607D01*
X137811836Y-140924785D01*
X137980256Y-141107738D01*
X137980259Y-141107740D01*
X138176485Y-141260470D01*
X138176487Y-141260471D01*
X138176491Y-141260474D01*
X138395190Y-141378828D01*
X138630386Y-141459571D01*
X138875665Y-141500500D01*
X139124335Y-141500500D01*
X139369614Y-141459571D01*
X139604810Y-141378828D01*
X139713980Y-141319748D01*
X148999500Y-141319748D01*
X149011132Y-141378230D01*
X149055447Y-141444552D01*
X149121769Y-141488867D01*
X149180251Y-141500500D01*
X149180252Y-141500500D01*
X151819749Y-141500500D01*
X151848989Y-141494683D01*
X151878231Y-141488867D01*
X151944552Y-141444552D01*
X151988867Y-141378231D01*
X152000500Y-141319748D01*
X152000500Y-140000000D01*
X153994356Y-140000000D01*
X154014891Y-140247816D01*
X154014891Y-140247819D01*
X154014892Y-140247821D01*
X154075937Y-140488881D01*
X154120960Y-140591523D01*
X154175825Y-140716604D01*
X154175827Y-140716607D01*
X154311836Y-140924785D01*
X154480256Y-141107738D01*
X154480259Y-141107740D01*
X154676485Y-141260470D01*
X154676487Y-141260471D01*
X154676491Y-141260474D01*
X154895190Y-141378828D01*
X155130386Y-141459571D01*
X155375665Y-141500500D01*
X155624335Y-141500500D01*
X155869614Y-141459571D01*
X156104810Y-141378828D01*
X156323509Y-141260474D01*
X156519744Y-141107738D01*
X156688164Y-140924785D01*
X156824173Y-140716607D01*
X156924063Y-140488881D01*
X156985108Y-140247821D01*
X157005643Y-140000000D01*
X175494356Y-140000000D01*
X175514891Y-140247816D01*
X175514891Y-140247819D01*
X175514892Y-140247821D01*
X175575937Y-140488881D01*
X175620960Y-140591523D01*
X175675825Y-140716604D01*
X175675827Y-140716607D01*
X175811836Y-140924785D01*
X175980256Y-141107738D01*
X175980259Y-141107740D01*
X176176485Y-141260470D01*
X176176487Y-141260471D01*
X176176491Y-141260474D01*
X176395190Y-141378828D01*
X176630386Y-141459571D01*
X176875665Y-141500500D01*
X177124335Y-141500500D01*
X177369614Y-141459571D01*
X177604810Y-141378828D01*
X177823509Y-141260474D01*
X178019744Y-141107738D01*
X178188164Y-140924785D01*
X178324173Y-140716607D01*
X178424063Y-140488881D01*
X178485108Y-140247821D01*
X178505643Y-140000000D01*
X180494356Y-140000000D01*
X180514891Y-140247816D01*
X180514891Y-140247819D01*
X180514892Y-140247821D01*
X180575937Y-140488881D01*
X180620960Y-140591523D01*
X180675825Y-140716604D01*
X180675827Y-140716607D01*
X180811836Y-140924785D01*
X180980256Y-141107738D01*
X180980259Y-141107740D01*
X181176485Y-141260470D01*
X181176487Y-141260471D01*
X181176491Y-141260474D01*
X181395190Y-141378828D01*
X181630386Y-141459571D01*
X181875665Y-141500500D01*
X182124335Y-141500500D01*
X182369614Y-141459571D01*
X182604810Y-141378828D01*
X182823509Y-141260474D01*
X183019744Y-141107738D01*
X183188164Y-140924785D01*
X183324173Y-140716607D01*
X183424063Y-140488881D01*
X183485108Y-140247821D01*
X183505643Y-140000000D01*
X183485108Y-139752179D01*
X183424063Y-139511119D01*
X183324173Y-139283393D01*
X183188164Y-139075215D01*
X183019744Y-138892262D01*
X182997612Y-138875036D01*
X182823514Y-138739529D01*
X182823510Y-138739526D01*
X182823509Y-138739526D01*
X182604810Y-138621172D01*
X182604806Y-138621170D01*
X182604805Y-138621170D01*
X182369615Y-138540429D01*
X182124335Y-138499500D01*
X181875665Y-138499500D01*
X181630384Y-138540429D01*
X181395194Y-138621170D01*
X181176485Y-138739529D01*
X180980259Y-138892259D01*
X180811837Y-139075214D01*
X180675825Y-139283395D01*
X180575938Y-139511117D01*
X180514891Y-139752183D01*
X180494356Y-140000000D01*
X178505643Y-140000000D01*
X178485108Y-139752179D01*
X178424063Y-139511119D01*
X178324173Y-139283393D01*
X178188164Y-139075215D01*
X178019744Y-138892262D01*
X177997612Y-138875036D01*
X177823514Y-138739529D01*
X177823510Y-138739526D01*
X177823509Y-138739526D01*
X177604810Y-138621172D01*
X177604806Y-138621170D01*
X177604805Y-138621170D01*
X177369615Y-138540429D01*
X177124335Y-138499500D01*
X176875665Y-138499500D01*
X176630384Y-138540429D01*
X176395194Y-138621170D01*
X176176485Y-138739529D01*
X175980259Y-138892259D01*
X175811837Y-139075214D01*
X175675825Y-139283395D01*
X175575938Y-139511117D01*
X175514891Y-139752183D01*
X175494356Y-140000000D01*
X157005643Y-140000000D01*
X156985108Y-139752179D01*
X156924063Y-139511119D01*
X156824173Y-139283393D01*
X156688164Y-139075215D01*
X156519744Y-138892262D01*
X156497612Y-138875036D01*
X156323514Y-138739529D01*
X156323510Y-138739526D01*
X156323509Y-138739526D01*
X156104810Y-138621172D01*
X156104806Y-138621170D01*
X156104805Y-138621170D01*
X155869615Y-138540429D01*
X155624335Y-138499500D01*
X155375665Y-138499500D01*
X155130384Y-138540429D01*
X154895194Y-138621170D01*
X154676485Y-138739529D01*
X154480259Y-138892259D01*
X154311837Y-139075214D01*
X154175825Y-139283395D01*
X154075938Y-139511117D01*
X154014891Y-139752183D01*
X153994356Y-140000000D01*
X152000500Y-140000000D01*
X152000500Y-138680252D01*
X151988867Y-138621769D01*
X151988467Y-138621170D01*
X151944552Y-138555447D01*
X151878230Y-138511132D01*
X151819749Y-138499500D01*
X151819748Y-138499500D01*
X149180252Y-138499500D01*
X149180251Y-138499500D01*
X149121769Y-138511132D01*
X149055447Y-138555447D01*
X149011132Y-138621769D01*
X148999500Y-138680251D01*
X148999500Y-141319748D01*
X139713980Y-141319748D01*
X139823509Y-141260474D01*
X140019744Y-141107738D01*
X140188164Y-140924785D01*
X140324173Y-140716607D01*
X140424063Y-140488881D01*
X140485108Y-140247821D01*
X140505643Y-140000000D01*
X140485108Y-139752179D01*
X140424063Y-139511119D01*
X140324173Y-139283393D01*
X140188164Y-139075215D01*
X140019744Y-138892262D01*
X139997612Y-138875036D01*
X139823514Y-138739529D01*
X139823510Y-138739526D01*
X139823509Y-138739526D01*
X139604810Y-138621172D01*
X139604806Y-138621170D01*
X139604805Y-138621170D01*
X139369615Y-138540429D01*
X139124335Y-138499500D01*
X138875665Y-138499500D01*
X138630384Y-138540429D01*
X138395194Y-138621170D01*
X138176485Y-138739529D01*
X137980259Y-138892259D01*
X137811837Y-139075214D01*
X137675825Y-139283395D01*
X137575938Y-139511117D01*
X137514891Y-139752183D01*
X137494356Y-140000000D01*
X135500500Y-140000000D01*
X135500500Y-138680252D01*
X135488867Y-138621769D01*
X135488467Y-138621170D01*
X135444552Y-138555447D01*
X135378230Y-138511132D01*
X135319749Y-138499500D01*
X135319748Y-138499500D01*
X132680252Y-138499500D01*
X132680251Y-138499500D01*
X132621769Y-138511132D01*
X132555447Y-138555447D01*
X132511132Y-138621769D01*
X132499500Y-138680251D01*
X132499500Y-141319748D01*
X123213980Y-141319748D01*
X123323509Y-141260474D01*
X123519744Y-141107738D01*
X123688164Y-140924785D01*
X123824173Y-140716607D01*
X123924063Y-140488881D01*
X123985108Y-140247821D01*
X124005643Y-140000000D01*
X123985108Y-139752179D01*
X123924063Y-139511119D01*
X123824173Y-139283393D01*
X123688164Y-139075215D01*
X123519744Y-138892262D01*
X123497612Y-138875036D01*
X123323514Y-138739529D01*
X123323510Y-138739526D01*
X123323509Y-138739526D01*
X123104810Y-138621172D01*
X123104806Y-138621170D01*
X123104805Y-138621170D01*
X122869615Y-138540429D01*
X122624335Y-138499500D01*
X122375665Y-138499500D01*
X122130384Y-138540429D01*
X121895194Y-138621170D01*
X121676485Y-138739529D01*
X121480259Y-138892259D01*
X121311837Y-139075214D01*
X121175825Y-139283395D01*
X121075938Y-139511117D01*
X121014891Y-139752183D01*
X120994356Y-140000000D01*
X119000500Y-140000000D01*
X119000500Y-138680252D01*
X118988867Y-138621769D01*
X118988467Y-138621170D01*
X118944552Y-138555447D01*
X118878230Y-138511132D01*
X118819749Y-138499500D01*
X118819748Y-138499500D01*
X116180252Y-138499500D01*
X116180251Y-138499500D01*
X116121769Y-138511132D01*
X116055447Y-138555447D01*
X116011132Y-138621769D01*
X115999500Y-138680251D01*
X115999500Y-141319748D01*
X112000500Y-141319748D01*
X112000500Y-132319748D01*
X178499500Y-132319748D01*
X178511132Y-132378230D01*
X178555447Y-132444552D01*
X178621769Y-132488867D01*
X178680251Y-132500500D01*
X178680252Y-132500500D01*
X181319749Y-132500500D01*
X181348989Y-132494683D01*
X181378231Y-132488867D01*
X181444552Y-132444552D01*
X181488867Y-132378231D01*
X181500500Y-132319748D01*
X181500500Y-129680252D01*
X181488867Y-129621769D01*
X181444552Y-129555447D01*
X181378230Y-129511132D01*
X181319749Y-129499500D01*
X181319748Y-129499500D01*
X178680252Y-129499500D01*
X178680251Y-129499500D01*
X178621769Y-129511132D01*
X178555447Y-129555447D01*
X178511132Y-129621769D01*
X178499500Y-129680251D01*
X178499500Y-132319748D01*
X112000500Y-132319748D01*
X112000500Y-125999999D01*
X117994356Y-125999999D01*
X118014891Y-126247816D01*
X118014891Y-126247819D01*
X118014892Y-126247821D01*
X118075937Y-126488881D01*
X118093220Y-126528282D01*
X118175825Y-126716604D01*
X118175827Y-126716607D01*
X118311836Y-126924785D01*
X118480256Y-127107738D01*
X118480259Y-127107740D01*
X118676485Y-127260470D01*
X118676487Y-127260471D01*
X118676491Y-127260474D01*
X118895190Y-127378828D01*
X119130386Y-127459571D01*
X119375665Y-127500500D01*
X119624335Y-127500500D01*
X119869614Y-127459571D01*
X120104810Y-127378828D01*
X120323509Y-127260474D01*
X120519744Y-127107738D01*
X120688164Y-126924785D01*
X120824173Y-126716607D01*
X120924063Y-126488881D01*
X120985108Y-126247821D01*
X121005643Y-126000000D01*
X120985108Y-125752179D01*
X120924063Y-125511119D01*
X120824173Y-125283393D01*
X120688164Y-125075215D01*
X120519744Y-124892262D01*
X120497612Y-124875036D01*
X120323514Y-124739529D01*
X120323510Y-124739526D01*
X120323509Y-124739526D01*
X120104810Y-124621172D01*
X120104806Y-124621170D01*
X120104805Y-124621170D01*
X119869615Y-124540429D01*
X119624335Y-124499500D01*
X119375665Y-124499500D01*
X119130384Y-124540429D01*
X118895194Y-124621170D01*
X118676485Y-124739529D01*
X118480259Y-124892259D01*
X118311837Y-125075214D01*
X118175825Y-125283395D01*
X118085780Y-125488678D01*
X118075937Y-125511119D01*
X118059643Y-125575464D01*
X118014891Y-125752183D01*
X117994356Y-125999999D01*
X112000500Y-125999999D01*
X112000500Y-122319748D01*
X117999500Y-122319748D01*
X118011132Y-122378230D01*
X118055447Y-122444552D01*
X118121769Y-122488867D01*
X118180251Y-122500500D01*
X118180252Y-122500500D01*
X120819749Y-122500500D01*
X120848989Y-122494683D01*
X120878231Y-122488867D01*
X120944552Y-122444552D01*
X120988867Y-122378231D01*
X121000500Y-122319748D01*
X121000500Y-119680252D01*
X120988867Y-119621769D01*
X120988866Y-119621769D01*
X120944552Y-119555447D01*
X120878230Y-119511132D01*
X120819749Y-119499500D01*
X120819748Y-119499500D01*
X118180252Y-119499500D01*
X118180251Y-119499500D01*
X118121769Y-119511132D01*
X118055447Y-119555447D01*
X118011132Y-119621769D01*
X117999500Y-119680251D01*
X117999500Y-122319748D01*
X112000500Y-122319748D01*
X112000500Y-109499999D01*
X117994356Y-109499999D01*
X118014891Y-109747816D01*
X118014891Y-109747819D01*
X118014892Y-109747821D01*
X118075937Y-109988881D01*
X118120960Y-110091523D01*
X118175825Y-110216604D01*
X118175827Y-110216607D01*
X118311836Y-110424785D01*
X118480256Y-110607738D01*
X118480259Y-110607740D01*
X118676485Y-110760470D01*
X118676487Y-110760471D01*
X118676491Y-110760474D01*
X118895190Y-110878828D01*
X119130386Y-110959571D01*
X119375665Y-111000500D01*
X119624335Y-111000500D01*
X119869614Y-110959571D01*
X120104810Y-110878828D01*
X120323509Y-110760474D01*
X120519744Y-110607738D01*
X120688164Y-110424785D01*
X120824173Y-110216607D01*
X120924063Y-109988881D01*
X120985108Y-109747821D01*
X121005643Y-109500000D01*
X120985108Y-109252179D01*
X120924063Y-109011119D01*
X120824173Y-108783393D01*
X120688164Y-108575215D01*
X120519744Y-108392262D01*
X120397556Y-108297159D01*
X120323514Y-108239529D01*
X120323510Y-108239526D01*
X120323509Y-108239526D01*
X120104810Y-108121172D01*
X120104806Y-108121170D01*
X120104805Y-108121170D01*
X119869615Y-108040429D01*
X119624335Y-107999500D01*
X119375665Y-107999500D01*
X119130384Y-108040429D01*
X118895194Y-108121170D01*
X118676485Y-108239529D01*
X118480259Y-108392259D01*
X118480256Y-108392261D01*
X118480256Y-108392262D01*
X118311836Y-108575215D01*
X118295643Y-108600000D01*
X118175825Y-108783395D01*
X118123432Y-108902841D01*
X118075937Y-109011119D01*
X118040641Y-109150500D01*
X118014891Y-109252183D01*
X117994356Y-109499999D01*
X112000500Y-109499999D01*
X112000500Y-105819748D01*
X117999500Y-105819748D01*
X118011132Y-105878230D01*
X118055447Y-105944552D01*
X118121769Y-105988867D01*
X118180251Y-106000500D01*
X118180252Y-106000500D01*
X120819749Y-106000500D01*
X120848989Y-105994683D01*
X120878231Y-105988867D01*
X120944552Y-105944552D01*
X120988867Y-105878231D01*
X121000500Y-105819748D01*
X121000500Y-103180252D01*
X120988867Y-103121769D01*
X120944552Y-103055447D01*
X120878230Y-103011132D01*
X120819749Y-102999500D01*
X120819748Y-102999500D01*
X118180252Y-102999500D01*
X118180251Y-102999500D01*
X118121769Y-103011132D01*
X118055447Y-103055447D01*
X118011132Y-103121769D01*
X117999500Y-103180251D01*
X117999500Y-105819748D01*
X112000500Y-105819748D01*
X112000500Y-93000000D01*
X117994356Y-93000000D01*
X118014891Y-93247816D01*
X118014891Y-93247819D01*
X118014892Y-93247821D01*
X118075937Y-93488881D01*
X118120960Y-93591523D01*
X118175825Y-93716604D01*
X118175827Y-93716607D01*
X118311836Y-93924785D01*
X118480256Y-94107738D01*
X118480259Y-94107740D01*
X118676485Y-94260470D01*
X118676487Y-94260471D01*
X118676491Y-94260474D01*
X118895190Y-94378828D01*
X119130386Y-94459571D01*
X119375665Y-94500500D01*
X119624335Y-94500500D01*
X119869614Y-94459571D01*
X120104810Y-94378828D01*
X120323509Y-94260474D01*
X120519744Y-94107738D01*
X120688164Y-93924785D01*
X120824173Y-93716607D01*
X120924063Y-93488881D01*
X120985108Y-93247821D01*
X121005643Y-93000000D01*
X120985108Y-92752179D01*
X120924063Y-92511119D01*
X120824173Y-92283393D01*
X120688164Y-92075215D01*
X120519744Y-91892262D01*
X120497612Y-91875036D01*
X120323514Y-91739529D01*
X120323510Y-91739526D01*
X120323509Y-91739526D01*
X120104810Y-91621172D01*
X120104806Y-91621170D01*
X120104805Y-91621170D01*
X119869615Y-91540429D01*
X119624335Y-91499500D01*
X119375665Y-91499500D01*
X119130384Y-91540429D01*
X118895194Y-91621170D01*
X118676485Y-91739529D01*
X118480259Y-91892259D01*
X118311837Y-92075214D01*
X118175825Y-92283395D01*
X118075938Y-92511117D01*
X118014891Y-92752183D01*
X117994356Y-93000000D01*
X112000500Y-93000000D01*
X112000500Y-89319748D01*
X117999500Y-89319748D01*
X118011132Y-89378230D01*
X118055447Y-89444552D01*
X118121769Y-89488867D01*
X118180251Y-89500500D01*
X118180252Y-89500500D01*
X120819749Y-89500500D01*
X120848989Y-89494683D01*
X120878231Y-89488867D01*
X120944552Y-89444552D01*
X120988867Y-89378231D01*
X121000500Y-89319748D01*
X121000500Y-86680252D01*
X120988867Y-86621769D01*
X120944552Y-86555447D01*
X120878230Y-86511132D01*
X120819749Y-86499500D01*
X120819748Y-86499500D01*
X118180252Y-86499500D01*
X118180251Y-86499500D01*
X118121769Y-86511132D01*
X118055447Y-86555447D01*
X118011132Y-86621769D01*
X117999500Y-86680251D01*
X117999500Y-89319748D01*
X112000500Y-89319748D01*
X112000500Y-86004065D01*
X112000765Y-85995956D01*
X112000766Y-85995943D01*
X112005991Y-85916208D01*
X112018709Y-85738405D01*
X112020770Y-85723101D01*
X112043163Y-85610523D01*
X112073795Y-85469717D01*
X112077515Y-85456318D01*
X112116243Y-85342230D01*
X112117404Y-85338967D01*
X112165068Y-85211177D01*
X112170017Y-85199713D01*
X112224481Y-85089272D01*
X112226777Y-85084851D01*
X112290855Y-84967501D01*
X112296562Y-84958075D01*
X112365639Y-84854694D01*
X112369425Y-84849344D01*
X112448850Y-84743246D01*
X112454823Y-84735878D01*
X112537161Y-84641989D01*
X112542648Y-84636131D01*
X112636131Y-84542648D01*
X112641989Y-84537161D01*
X112735878Y-84454823D01*
X112743246Y-84448850D01*
X112849344Y-84369425D01*
X112854694Y-84365639D01*
X112958075Y-84296562D01*
X112967501Y-84290855D01*
X113084851Y-84226777D01*
X113089272Y-84224481D01*
X113199713Y-84170017D01*
X113211177Y-84165068D01*
X113338967Y-84117404D01*
X113342230Y-84116243D01*
X113456305Y-84077519D01*
X113469754Y-84073787D01*
X113610546Y-84043159D01*
X113723125Y-84020766D01*
X113738402Y-84018709D01*
X113916208Y-84005991D01*
X113992267Y-84001006D01*
X113995958Y-84000765D01*
X114004063Y-84000500D01*
X127376000Y-84000500D01*
X127443039Y-84020185D01*
G37*
%TD.AperFunction*%
%TD*%
M02*
