M48
; DRILL file {KiCad 7.0.2} date Sun Jan 21 19:49:36 2024
; FORMAT={-:-/ absolute / inch / decimal}
; #@! TF.CreationDate,2024-01-21T19:49:36+02:00
; #@! TF.GenerationSoftware,Kicad,Pcbnew,7.0.2
; #@! TF.FileFunction,Plated,1,2,PTH
FMAT,2
INCH
; #@! TA.AperFunction,Plated,PTH,ViaDrill
T1C0.0157
; #@! TA.AperFunction,Plated,PTH,ComponentDrill
T2C0.0394
; #@! TA.AperFunction,Plated,PTH,ComponentDrill
T3C0.0433
; #@! TA.AperFunction,Plated,PTH,ComponentDrill
T4C0.0512
; #@! TA.AperFunction,Plated,PTH,ComponentDrill
T5C0.1260
%
G90
G05
T1
X5.1693Y-4.2165
X5.4213Y-3.6772
X5.4882Y-3.7165
X5.622Y-4.1654
X5.7244Y-4.2756
X5.8189Y-5.2205
X5.8533Y-4.5364
X5.9035Y-3.8268
X5.9035Y-3.8701
X5.9035Y-3.9134
X5.9469Y-3.8268
X5.9469Y-3.8701
X5.9469Y-3.9134
X5.9823Y-4.9646
X5.9878Y-4.5079
X5.9902Y-3.8268
X5.9902Y-3.8701
X5.9921Y-3.9134
X6.252Y-5.1398
X6.4154Y-4.0335
X6.5709Y-3.6713
T2
X6.0815Y-4.3504
X6.0815Y-4.4504
X6.1815Y-4.3504
X6.1815Y-4.4504
X6.2815Y-4.3504
X6.2815Y-4.4504
T3
X5.0039Y-3.5079
X5.0039Y-3.7638
X5.1811Y-3.5079
X5.1811Y-3.7638
T4
X4.626Y-5.5118
X4.7047Y-3.4646
X4.7047Y-3.6614
X4.7047Y-3.8583
X4.7047Y-4.1142
X4.7047Y-4.311
X4.7047Y-4.5079
X4.7047Y-4.7638
X4.7047Y-4.9606
X4.7047Y-5.1575
X4.8228Y-5.5118
X5.0197Y-5.5118
X5.2756Y-5.5118
X5.4724Y-5.5118
X5.6693Y-5.5118
X5.9252Y-5.5118
X6.122Y-5.5118
X6.3189Y-5.5118
X6.5748Y-5.5118
X6.7717Y-5.5118
X6.9685Y-5.5118
X7.0866Y-3.4646
X7.0866Y-3.6614
X7.0866Y-3.8583
X7.0866Y-4.1142
X7.0866Y-4.311
X7.0866Y-4.5079
X7.0866Y-4.7638
X7.0866Y-4.9606
X7.0866Y-5.1575
X7.1654Y-5.5118
T5
X5.2362Y-4.5276
X6.5551Y-4.5276
T0
M30
